<mxfile host="Electron" agent="Mozilla/5.0 (Windows NT 10.0; Win64; x64) AppleWebKit/537.36 (KHTML, like Gecko) draw.io/24.7.5 Chrome/126.0.6478.183 Electron/31.3.0 Safari/537.36" version="24.7.5">
  <diagram name="Page-1" id="Cr-NQzRzor-FRP3wnXiK">
    <mxGraphModel dx="4955" dy="2838" grid="0" gridSize="10" guides="1" tooltips="1" connect="1" arrows="1" fold="1" page="0" pageScale="1" pageWidth="850" pageHeight="1100" math="0" shadow="0">
      <root>
        <mxCell id="0" />
        <mxCell id="1" parent="0" />
        <mxCell id="h_kPDkXWWDrsntsU_vFJ-1" value="" style="rounded=0;whiteSpace=wrap;html=1;fillColor=#FFFF99;" parent="1" vertex="1">
          <mxGeometry x="-810" y="-1050" width="2930" height="1730" as="geometry" />
        </mxCell>
        <mxCell id="h_kPDkXWWDrsntsU_vFJ-2" value="&lt;span style=&quot;color: rgba(0, 0, 0, 0); font-family: monospace; font-size: 0px; text-align: start; text-wrap: nowrap;&quot;&gt;%3CmxGraphModel%3E%3Croot%3E%3CmxCell%20id%3D%220%22%2F%3E%3CmxCell%20id%3D%221%22%20parent%3D%220%22%2F%3E%3CmxCell%20id%3D%222%22%20value%3D%22%26lt%3Bp%20style%3D%26quot%3Bmargin%3A0px%3Bmargin-top%3A4px%3Btext-align%3Acenter%3B%26quot%3B%26gt%3B%26lt%3Bb%26gt%3BSachGiaoKhoa%26lt%3B%2Fb%26gt%3B%26lt%3B%2Fp%26gt%3B%26lt%3Bhr%20size%3D%26quot%3B1%26quot%3B%20style%3D%26quot%3Bborder-style%3Asolid%3B%26quot%3B%26gt%3B%26lt%3Bp%20style%3D%26quot%3Bmargin%3A0px%3Bmargin-left%3A4px%3B%26quot%3B%26gt%3B-%20tinhTrang%3A%20String%26lt%3B%2Fp%26gt%3B%26lt%3Bhr%20size%3D%26quot%3B1%26quot%3B%20style%3D%26quot%3Bborder-style%3Asolid%3B%26quot%3B%26gt%3B%26lt%3Bp%20style%3D%26quot%3Bmargin%3A0px%3Bmargin-left%3A4px%3B%26quot%3B%26gt%3BSachGiaoKhoa(maSach%2C%20soLuong%2C%20ngayNhap%2C%20nhaXuatBan%2C%20tinhTrang)%26lt%3B%2Fp%26gt%3B%26lt%3Bp%20style%3D%26quot%3Bmargin%3A0px%3Bmargin-left%3A4px%3B%26quot%3B%26gt%3B%26lt%3Bbr%26gt%3B%26lt%3B%2Fp%26gt%3B%26lt%3Bp%20style%3D%26quot%3Bmargin%3A0px%3Bmargin-left%3A4px%3B%26quot%3B%26gt%3B%2B%20thanhTien%3A%20void%26lt%3B%2Fp%26gt%3B%26lt%3Bp%20style%3D%26quot%3Bmargin%3A0px%3Bmargin-left%3A4px%3B%26quot%3B%26gt%3B-%20setter%20v%C3%A0%20getter%26lt%3B%2Fp%26gt%3B%26lt%3Bp%20style%3D%26quot%3Bmargin%3A0px%3Bmargin-left%3A4px%3B%26quot%3B%26gt%3B%26lt%3Bbr%26gt%3B%26lt%3B%2Fp%26gt%3B%22%20style%3D%22verticalAlign%3Dtop%3Balign%3Dleft%3Boverflow%3Dfill%3Bhtml%3D1%3BwhiteSpace%3Dwrap%3B%22%20vertex%3D%221%22%20parent%3D%221%22%3E%3CmxGeometry%20x%3D%22150%22%20y%3D%22840%22%20width%3D%22190%22%20height%3D%22160%22%20as%3D%22geometry%22%2F%3E%3C%2FmxCell%3E%3CmxCell%20id%3D%223%22%20value%3D%22%26lt%3Bp%20style%3D%26quot%3Bmargin%3A0px%3Bmargin-top%3A4px%3Btext-align%3Acenter%3B%26quot%3B%26gt%3B%26lt%3Bb%26gt%3BsachThamKhao%26lt%3B%2Fb%26gt%3B%26lt%3B%2Fp%26gt%3B%26lt%3Bhr%20size%3D%26quot%3B1%26quot%3B%20style%3D%26quot%3Bborder-style%3Asolid%3B%26quot%3B%26gt%3B%26lt%3Bp%20style%3D%26quot%3Bmargin%3A0px%3Bmargin-left%3A4px%3B%26quot%3B%26gt%3B-%20thue%3A%20Double%26lt%3Bbr%26gt%3B%26lt%3B%2Fp%26gt%3B%26lt%3Bhr%20size%3D%26quot%3B1%26quot%3B%20style%3D%26quot%3Bborder-style%3Asolid%3B%26quot%3B%26gt%3B%26lt%3Bp%20style%3D%26quot%3Bmargin%3A0px%3Bmargin-left%3A4px%3B%26quot%3B%26gt%3BSachGiaoKhoa(maSach%2C%20soLuong%2C%20ngayNhap%2C%20nhaXuatBan%2C%20thue)%26lt%3Bbr%26gt%3B%26lt%3B%2Fp%26gt%3B%26lt%3Bp%20style%3D%26quot%3Bmargin%3A0px%3Bmargin-left%3A4px%3B%26quot%3B%26gt%3B%26lt%3Bbr%26gt%3B%26lt%3B%2Fp%26gt%3B%26lt%3Bp%20style%3D%26quot%3Bmargin%3A0px%3Bmargin-left%3A4px%3B%26quot%3B%26gt%3B%2B%20thanhTien%3A%20void%26lt%3B%2Fp%26gt%3B%26lt%3Bp%20style%3D%26quot%3Bmargin%3A0px%3Bmargin-left%3A4px%3B%26quot%3B%26gt%3B-%20setter%20v%C3%A0%20getter%26lt%3Bbr%26gt%3B%26lt%3B%2Fp%26gt%3B%22%20style%3D%22verticalAlign%3Dtop%3Balign%3Dleft%3Boverflow%3Dfill%3Bhtml%3D1%3BwhiteSpace%3Dwrap%3B%22%20vertex%3D%221%22%20parent%3D%221%22%3E%3CmxGeometry%20x%3D%22300%22%20y%3D%221060%22%20width%3D%22180%22%20height%3D%22160%22%20as%3D%22geometry%22%2F%3E%3C%2FmxCell%3E%3CmxCell%20id%3D%224%22%20value%3D%22%26lt%3Bp%20style%3D%26quot%3Bmargin%3A0px%3Bmargin-top%3A4px%3Btext-align%3Acenter%3B%26quot%3B%26gt%3B%26lt%3Bb%26gt%3BSach%26lt%3B%2Fb%26gt%3B%26lt%3B%2Fp%26gt%3B%26lt%3Bhr%20size%3D%26quot%3B1%26quot%3B%20style%3D%26quot%3Bborder-style%3Asolid%3B%26quot%3B%26gt%3B%26lt%3Bp%20style%3D%26quot%3Bmargin%3A%200px%200px%200px%204px%3B%26quot%3B%26gt%3B-%20maSach%3A%20Double%26lt%3B%2Fp%26gt%3B%26lt%3Bp%20style%3D%26quot%3Bmargin%3A%200px%200px%200px%204px%3B%26quot%3B%26gt%3B-%20soLuong%3A%20Int%26lt%3B%2Fp%26gt%3B%26lt%3Bp%20style%3D%26quot%3Bmargin%3A%200px%200px%200px%204px%3B%26quot%3B%26gt%3B-%20ngayNhap%3A%20Date%26lt%3B%2Fp%26gt%3B%26lt%3Bp%20style%3D%26quot%3Bmargin%3A%200px%200px%200px%204px%3B%26quot%3B%26gt%3B-%20nhaXuatBan%3A%20String%26lt%3B%2Fp%26gt%3B%26lt%3Bp%20style%3D%26quot%3Bmargin%3A%200px%200px%200px%204px%3B%26quot%3B%26gt%3B%26lt%3Bbr%26gt%3B%26lt%3B%2Fp%26gt%3B%26lt%3Bhr%20size%3D%26quot%3B1%26quot%3B%20style%3D%26quot%3Bborder-style%3Asolid%3B%26quot%3B%26gt%3B%26lt%3Bp%20style%3D%26quot%3Bmargin%3A0px%3Bmargin-left%3A4px%3B%26quot%3B%26gt%3BSach()%26lt%3B%2Fp%26gt%3B%26lt%3Bp%20style%3D%26quot%3Bmargin%3A0px%3Bmargin-left%3A4px%3B%26quot%3B%26gt%3B%2B%20thanhTien%3A%20Double%26lt%3B%2Fp%26gt%3B%22%20style%3D%22verticalAlign%3Dtop%3Balign%3Dleft%3Boverflow%3Dfill%3Bhtml%3D1%3BwhiteSpace%3Dwrap%3B%22%20vertex%3D%221%22%20parent%3D%221%22%3E%3CmxGeometry%20x%3D%22480%22%20y%3D%22790%22%20width%3D%22160%22%20height%3D%22180%22%20as%3D%22geometry%22%2F%3E%3C%2FmxCell%3E%3CmxCell%20id%3D%225%22%20value%3D%22Extends%22%20style%3D%22endArrow%3Dblock%3BendSize%3D16%3BendFill%3D0%3Bhtml%3D1%3Brounded%3D0%3B%22%20edge%3D%221%22%20source%3D%222%22%20target%3D%224%22%20parent%3D%221%22%3E%3CmxGeometry%20width%3D%22160%22%20relative%3D%221%22%20as%3D%22geometry%22%3E%3CmxPoint%20x%3D%22360%22%20y%3D%22950%22%20as%3D%22sourcePoint%22%2F%3E%3CmxPoint%20x%3D%22520%22%20y%3D%22950%22%20as%3D%22targetPoint%22%2F%3E%3C%2FmxGeometry%3E%3C%2FmxCell%3E%3CmxCell%20id%3D%226%22%20value%3D%22Extends%22%20style%3D%22endArrow%3Dblock%3BendSize%3D16%3BendFill%3D0%3Bhtml%3D1%3Brounded%3D0%3B%22%20edge%3D%221%22%20source%3D%223%22%20parent%3D%221%22%3E%3CmxGeometry%20width%3D%22160%22%20relative%3D%221%22%20as%3D%22geometry%22%3E%3CmxPoint%20x%3D%22497%22%20y%3D%221030%22%20as%3D%22sourcePoint%22%2F%3E%3CmxPoint%20x%3D%22501%22%20y%3D%22970%22%20as%3D%22targetPoint%22%2F%3E%3C%2FmxGeometry%3E%3C%2FmxCell%3E%3CmxCell%20id%3D%227%22%20value%3D%22%26lt%3Bp%20style%3D%26quot%3Bmargin%3A0px%3Bmargin-top%3A4px%3Btext-align%3Acenter%3B%26quot%3B%26gt%3B%26lt%3Bb%26gt%3B%26amp%3Blt%3B%26amp%3Blt%3BImplement%26amp%3Bgt%3B%26amp%3Bgt%3B%26lt%3B%2Fb%26gt%3B%26lt%3B%2Fp%26gt%3B%26lt%3Bp%20style%3D%26quot%3Bmargin%3A0px%3Bmargin-top%3A4px%3Btext-align%3Acenter%3B%26quot%3B%26gt%3B%26lt%3Bb%26gt%3BSachService%26lt%3B%2Fb%26gt%3B%26lt%3B%2Fp%26gt%3B%26lt%3Bhr%20size%3D%26quot%3B1%26quot%3B%20style%3D%26quot%3Bborder-style%3Asolid%3B%26quot%3B%26gt%3B%26lt%3Bp%20style%3D%26quot%3Bmargin%3A0px%3Bmargin-left%3A4px%3B%26quot%3B%26gt%3B%26lt%3Bbr%26gt%3B%26lt%3B%2Fp%26gt%3B%26lt%3Bhr%20size%3D%26quot%3B1%26quot%3B%20style%3D%26quot%3Bborder-style%3Asolid%3B%26quot%3B%26gt%3B%26lt%3Bp%20style%3D%26quot%3Bmargin%3A0px%3Bmargin-left%3A4px%3B%26quot%3B%26gt%3B-%20themSach(Sach%20sach)%3A%20void%26lt%3B%2Fp%26gt%3B%26lt%3Bp%20style%3D%26quot%3Bmargin%3A0px%3Bmargin-left%3A4px%3B%26quot%3B%26gt%3B-%20xoaSach(int%20maSach)%3A%20void%26lt%3B%2Fp%26gt%3B%26lt%3Bp%20style%3D%26quot%3Bmargin%3A0px%3Bmargin-left%3A4px%3B%26quot%3B%26gt%3B-%20suaSach(Sach%20sach)%3A%20void%26lt%3B%2Fp%26gt%3B%26lt%3Bp%20style%3D%26quot%3Bmargin%3A0px%3Bmargin-left%3A4px%3B%26quot%3B%26gt%3B-%20timSach(id%20int)%3A%20List%26amp%3Blt%3BSach%26amp%3Bgt%3B%26lt%3B%2Fp%26gt%3B%26lt%3Bp%20style%3D%26quot%3Bmargin%3A0px%3Bmargin-left%3A4px%3B%26quot%3B%26gt%3B-%20tongTungLoai()%3A%20List%26amp%3Blt%3BSach%26amp%3Bgt%3B%26lt%3B%2Fp%26gt%3B%26lt%3Bp%20style%3D%26quot%3Bmargin%3A0px%3Bmargin-left%3A4px%3B%26quot%3B%26gt%3B-%20TBDGSTK()%3A%20List%26amp%3Blt%3BSach%26amp%3Bgt%3B%26lt%3B%2Fp%26gt%3B%26lt%3Bp%20style%3D%26quot%3Bmargin%3A0px%3Bmargin-left%3A4px%3B%26quot%3B%26gt%3B-%20XuatSGK()%3A%20List%26amp%3Blt%3BSach%26amp%3Bgt%3B%26lt%3B%2Fp%26gt%3B%22%20style%3D%22verticalAlign%3Dtop%3Balign%3Dleft%3Boverflow%3Dfill%3Bhtml%3D1%3BwhiteSpace%3Dwrap%3B%22%20vertex%3D%221%22%20parent%3D%221%22%3E%3CmxGeometry%20x%3D%22820%22%20y%3D%22780%22%20width%3D%22160%22%20height%3D%22210%22%20as%3D%22geometry%22%2F%3E%3C%2FmxCell%3E%3CmxCell%20id%3D%228%22%20value%3D%22%26lt%3Bp%20style%3D%26quot%3Bmargin%3A0px%3Bmargin-top%3A4px%3Btext-align%3Acenter%3B%26quot%3B%26gt%3B%26lt%3Bb%20style%3D%26quot%3Bbackground-color%3A%20initial%3B%26quot%3B%26gt%3BSachServiceImpl%26lt%3B%2Fb%26gt%3B%26lt%3Bbr%26gt%3B%26lt%3B%2Fp%26gt%3B%26lt%3Bhr%20size%3D%26quot%3B1%26quot%3B%20style%3D%26quot%3Bborder-style%3Asolid%3B%26quot%3B%26gt%3B%26lt%3Bp%20style%3D%26quot%3Bmargin%3A0px%3Bmargin-left%3A4px%3B%26quot%3B%26gt%3B%26lt%3Bspan%20style%3D%26quot%3Bbackground-color%3A%20initial%3B%20text-wrap%3A%20nowrap%3B%20text-align%3A%20center%3B%26quot%3B%26gt%3B-%20persistenceServiceRemote%26lt%3B%2Fspan%26gt%3B%26lt%3Bspan%20style%3D%26quot%3Btext-align%3A%20center%3B%20text-wrap%3A%20nowrap%3B%26quot%3B%26gt%3B%3A%20SachPersistenceService%26lt%3B%2Fspan%26gt%3B%26lt%3Bbr%26gt%3B%26lt%3B%2Fp%26gt%3B%26lt%3Bhr%20size%3D%26quot%3B1%26quot%3B%20style%3D%26quot%3Bborder-style%3Asolid%3B%26quot%3B%26gt%3B%26lt%3Bp%20style%3D%26quot%3Bmargin%3A0px%3Bmargin-left%3A4px%3B%26quot%3B%26gt%3B-%20themSach(Sach%20sach)%3A%20void%26lt%3B%2Fp%26gt%3B%26lt%3Bp%20style%3D%26quot%3Bmargin%3A0px%3Bmargin-left%3A4px%3B%26quot%3B%26gt%3B-%20xoaSach(int%20maSach)%3A%20void%26lt%3B%2Fp%26gt%3B%26lt%3Bp%20style%3D%26quot%3Bmargin%3A0px%3Bmargin-left%3A4px%3B%26quot%3B%26gt%3B-%20suaSach(Sach%20sach)%3A%20void%26lt%3B%2Fp%26gt%3B%26lt%3Bp%20style%3D%26quot%3Bmargin%3A0px%3Bmargin-left%3A4px%3B%26quot%3B%26gt%3B-%20timSach(id%20int)%3A%20List%26amp%3Blt%3BSach%26amp%3Bgt%3B%26lt%3B%2Fp%26gt%3B%26lt%3Bp%20style%3D%26quot%3Bmargin%3A%200px%200px%200px%204px%3B%26quot%3B%26gt%3B-%20tongTungLoai()%3A%20List%26amp%3Blt%3BSach%26amp%3Bgt%3B%26lt%3B%2Fp%26gt%3B%26lt%3Bp%20style%3D%26quot%3Bmargin%3A0px%3Bmargin-left%3A4px%3B%26quot%3B%26gt%3B%26lt%3Bspan%20style%3D%26quot%3Bbackground-color%3A%20initial%3B%26quot%3B%26gt%3B-%20TBDGSTK()%3A%20List%26amp%3Blt%3BSach%26amp%3Bgt%3B%26lt%3B%2Fspan%26gt%3B%26lt%3Bbr%26gt%3B%26lt%3B%2Fp%26gt%3B%26lt%3Bp%20style%3D%26quot%3Bmargin%3A0px%3Bmargin-left%3A4px%3B%26quot%3B%26gt%3B-%20XuatSGK()%3A%20List%26amp%3Blt%3BSach%26amp%3Bgt%3B%26lt%3B%2Fp%26gt%3B%22%20style%3D%22verticalAlign%3Dtop%3Balign%3Dleft%3Boverflow%3Dfill%3Bhtml%3D1%3BwhiteSpace%3Dwrap%3B%22%20vertex%3D%221%22%20parent%3D%221%22%3E%3CmxGeometry%20x%3D%221080%22%20y%3D%221050%22%20width%3D%22300%22%20height%3D%22200%22%20as%3D%22geometry%22%2F%3E%3C%2FmxCell%3E%3CmxCell%20id%3D%229%22%20value%3D%22Use%22%20style%3D%22endArrow%3Dopen%3BendSize%3D12%3Bdashed%3D1%3Bhtml%3D1%3Brounded%3D0%3B%22%20edge%3D%221%22%20source%3D%227%22%20target%3D%224%22%20parent%3D%221%22%3E%3CmxGeometry%20width%3D%22160%22%20relative%3D%221%22%20as%3D%22geometry%22%3E%3CmxPoint%20x%3D%22800%22%20y%3D%221030%22%20as%3D%22sourcePoint%22%2F%3E%3CmxPoint%20x%3D%22960%22%20y%3D%221030%22%20as%3D%22targetPoint%22%2F%3E%3C%2FmxGeometry%3E%3C%2FmxCell%3E%3CmxCell%20id%3D%2210%22%20value%3D%22%22%20style%3D%22endArrow%3Dblock%3Bdashed%3D1%3BendFill%3D0%3BendSize%3D12%3Bhtml%3D1%3Brounded%3D0%3B%22%20edge%3D%221%22%20source%3D%228%22%20target%3D%227%22%20parent%3D%221%22%3E%3CmxGeometry%20width%3D%22160%22%20relative%3D%221%22%20as%3D%22geometry%22%3E%3CmxPoint%20x%3D%22820%22%20y%3D%22950%22%20as%3D%22sourcePoint%22%2F%3E%3CmxPoint%20x%3D%22980%22%20y%3D%22950%22%20as%3D%22targetPoint%22%2F%3E%3C%2FmxGeometry%3E%3C%2FmxCell%3E%3CmxCell%20id%3D%2211%22%20value%3D%22%26lt%3Bp%20style%3D%26quot%3Bmargin%3A0px%3Bmargin-top%3A4px%3Btext-align%3Acenter%3B%26quot%3B%26gt%3B%26lt%3Bb%26gt%3B%26amp%3Blt%3B%26amp%3Blt%3Binterface%26amp%3Bgt%3B%26amp%3Bgt%3B%26lt%3B%2Fb%26gt%3B%26lt%3B%2Fp%26gt%3B%26lt%3Bp%20style%3D%26quot%3Bmargin%3A0px%3Bmargin-top%3A4px%3Btext-align%3Acenter%3B%26quot%3B%26gt%3B%26lt%3Bb%26gt%3Bsubscriber%26lt%3B%2Fb%26gt%3B%26lt%3B%2Fp%26gt%3B%26lt%3Bhr%20size%3D%26quot%3B1%26quot%3B%20style%3D%26quot%3Bborder-style%3Asolid%3B%26quot%3B%26gt%3B%26lt%3Bp%20style%3D%26quot%3Bmargin%3A0px%3Bmargin-left%3A4px%3B%26quot%3B%26gt%3B%26lt%3Bbr%26gt%3B%26lt%3B%2Fp%26gt%3B%26lt%3Bhr%20size%3D%26quot%3B1%26quot%3B%20style%3D%26quot%3Bborder-style%3Asolid%3B%26quot%3B%26gt%3B%26lt%3Bp%20style%3D%26quot%3Bmargin%3A0px%3Bmargin-left%3A4px%3B%26quot%3B%26gt%3B%2B%20%26lt%3Bi%26gt%3Bupdate()%3A%20void%26lt%3B%2Fi%26gt%3B%26lt%3B%2Fp%26gt%3B%22%20style%3D%22verticalAlign%3Dtop%3Balign%3Dleft%3Boverflow%3Dfill%3Bhtml%3D1%3BwhiteSpace%3Dwrap%3B%22%20vertex%3D%221%22%20parent%3D%221%22%3E%3CmxGeometry%20x%3D%221690%22%20y%3D%22830%22%20width%3D%22230%22%20height%3D%22140%22%20as%3D%22geometry%22%2F%3E%3C%2FmxCell%3E%3CmxCell%20id%3D%2212%22%20value%3D%22%22%20style%3D%22endArrow%3DdiamondThin%3BendFill%3D0%3BendSize%3D24%3Bhtml%3D1%3Brounded%3D0%3BexitX%3D0.5%3BexitY%3D1%3BexitDx%3D0%3BexitDy%3D0%3BentryX%3D0.893%3BentryY%3D0.638%3BentryDx%3D0%3BentryDy%3D0%3BentryPerimeter%3D0%3B%22%20edge%3D%221%22%20parent%3D%221%22%3E%3CmxGeometry%20width%3D%22160%22%20relative%3D%221%22%20as%3D%22geometry%22%3E%3CmxPoint%20x%3D%221810%22%20y%3D%22970%22%20as%3D%22sourcePoint%22%2F%3E%3CmxPoint%20x%3D%221841.1800000000003%22%20y%3D%221150.2200000000003%22%20as%3D%22targetPoint%22%2F%3E%3C%2FmxGeometry%3E%3C%2FmxCell%3E%3CmxCell%20id%3D%2213%22%20value%3D%22%26lt%3Bp%20style%3D%26quot%3Bmargin%3A0px%3Bmargin-top%3A4px%3Btext-align%3Acenter%3B%26quot%3B%26gt%3B%26lt%3Bb%26gt%3Bpublisher%26lt%3B%2Fb%26gt%3B%26lt%3B%2Fp%26gt%3B%26lt%3Bhr%20size%3D%26quot%3B1%26quot%3B%20style%3D%26quot%3Bborder-style%3Asolid%3B%26quot%3B%26gt%3B%26lt%3Bp%20style%3D%26quot%3Bmargin%3A0px%3Bmargin-left%3A4px%3B%26quot%3B%26gt%3B-%20subscribers%3A%20List%26amp%3Blt%3BSubscriber%26amp%3Bgt%3B%26lt%3B%2Fp%26gt%3B%26lt%3Bhr%20size%3D%26quot%3B1%26quot%3B%20style%3D%26quot%3Bborder-style%3Asolid%3B%26quot%3B%26gt%3B%26lt%3Bp%20style%3D%26quot%3Bmargin%3A0px%3Bmargin-left%3A4px%3B%26quot%3B%26gt%3B%2B%20subscriber(Subscriber%20subscriber)%3A%20void%26lt%3B%2Fp%26gt%3B%26lt%3Bp%20style%3D%26quot%3Bmargin%3A0px%3Bmargin-left%3A4px%3B%26quot%3B%26gt%3B%2B%20unsubscriber(Subscriber%20subscriber)%3A%20void%26lt%3B%2Fp%26gt%3B%26lt%3Bp%20style%3D%26quot%3Bmargin%3A0px%3Bmargin-left%3A4px%3B%26quot%3B%26gt%3B%2B%20notifySubsribers()%3A%20void%26lt%3B%2Fp%26gt%3B%22%20style%3D%22verticalAlign%3Dtop%3Balign%3Dleft%3Boverflow%3Dfill%3Bhtml%3D1%3BwhiteSpace%3Dwrap%3B%22%20vertex%3D%221%22%20parent%3D%221%22%3E%3CmxGeometry%20x%3D%221730%22%20y%3D%221150%22%20width%3D%22230%22%20height%3D%22140%22%20as%3D%22geometry%22%2F%3E%3C%2FmxCell%3E%3CmxCell%20id%3D%2214%22%20value%3D%22Extends%22%20style%3D%22endArrow%3Dblock%3BendSize%3D16%3BendFill%3D0%3Bhtml%3D1%3Brounded%3D0%3B%22%20edge%3D%221%22%20parent%3D%221%22%3E%3CmxGeometry%20width%3D%22160%22%20relative%3D%221%22%20as%3D%22geometry%22%3E%3CmxPoint%20x%3D%221380%22%20y%3D%221175%22%20as%3D%22sourcePoint%22%2F%3E%3CmxPoint%20x%3D%221730%22%20y%3D%221220%22%20as%3D%22targetPoint%22%2F%3E%3C%2FmxGeometry%3E%3C%2FmxCell%3E%3C%2Froot%3E%3C%2FmxGraphModel%3E&lt;/span&gt;&lt;span style=&quot;color: rgba(0, 0, 0, 0); font-family: monospace; font-size: 0px; text-align: start; text-wrap: nowrap;&quot;&gt;%3CmxGraphModel%3E%3Croot%3E%3CmxCell%20id%3D%220%22%2F%3E%3CmxCell%20id%3D%221%22%20parent%3D%220%22%2F%3E%3CmxCell%20id%3D%222%22%20value%3D%22%26lt%3Bp%20style%3D%26quot%3Bmargin%3A0px%3Bmargin-top%3A4px%3Btext-align%3Acenter%3B%26quot%3B%26gt%3B%26lt%3Bb%26gt%3BSachGiaoKhoa%26lt%3B%2Fb%26gt%3B%26lt%3B%2Fp%26gt%3B%26lt%3Bhr%20size%3D%26quot%3B1%26quot%3B%20style%3D%26quot%3Bborder-style%3Asolid%3B%26quot%3B%26gt%3B%26lt%3Bp%20style%3D%26quot%3Bmargin%3A0px%3Bmargin-left%3A4px%3B%26quot%3B%26gt%3B-%20tinhTrang%3A%20String%26lt%3B%2Fp%26gt%3B%26lt%3Bhr%20size%3D%26quot%3B1%26quot%3B%20style%3D%26quot%3Bborder-style%3Asolid%3B%26quot%3B%26gt%3B%26lt%3Bp%20style%3D%26quot%3Bmargin%3A0px%3Bmargin-left%3A4px%3B%26quot%3B%26gt%3BSachGiaoKhoa(maSach%2C%20soLuong%2C%20ngayNhap%2C%20nhaXuatBan%2C%20tinhTrang)%26lt%3B%2Fp%26gt%3B%26lt%3Bp%20style%3D%26quot%3Bmargin%3A0px%3Bmargin-left%3A4px%3B%26quot%3B%26gt%3B%26lt%3Bbr%26gt%3B%26lt%3B%2Fp%26gt%3B%26lt%3Bp%20style%3D%26quot%3Bmargin%3A0px%3Bmargin-left%3A4px%3B%26quot%3B%26gt%3B%2B%20thanhTien%3A%20void%26lt%3B%2Fp%26gt%3B%26lt%3Bp%20style%3D%26quot%3Bmargin%3A0px%3Bmargin-left%3A4px%3B%26quot%3B%26gt%3B-%20setter%20v%C3%A0%20getter%26lt%3B%2Fp%26gt%3B%26lt%3Bp%20style%3D%26quot%3Bmargin%3A0px%3Bmargin-left%3A4px%3B%26quot%3B%26gt%3B%26lt%3Bbr%26gt%3B%26lt%3B%2Fp%26gt%3B%22%20style%3D%22verticalAlign%3Dtop%3Balign%3Dleft%3Boverflow%3Dfill%3Bhtml%3D1%3BwhiteSpace%3Dwrap%3B%22%20vertex%3D%221%22%20parent%3D%221%22%3E%3CmxGeometry%20x%3D%22150%22%20y%3D%22840%22%20width%3D%22190%22%20height%3D%22160%22%20as%3D%22geometry%22%2F%3E%3C%2FmxCell%3E%3CmxCell%20id%3D%223%22%20value%3D%22%26lt%3Bp%20style%3D%26quot%3Bmargin%3A0px%3Bmargin-top%3A4px%3Btext-align%3Acenter%3B%26quot%3B%26gt%3B%26lt%3Bb%26gt%3BsachThamKhao%26lt%3B%2Fb%26gt%3B%26lt%3B%2Fp%26gt%3B%26lt%3Bhr%20size%3D%26quot%3B1%26quot%3B%20style%3D%26quot%3Bborder-style%3Asolid%3B%26quot%3B%26gt%3B%26lt%3Bp%20style%3D%26quot%3Bmargin%3A0px%3Bmargin-left%3A4px%3B%26quot%3B%26gt%3B-%20thue%3A%20Double%26lt%3Bbr%26gt%3B%26lt%3B%2Fp%26gt%3B%26lt%3Bhr%20size%3D%26quot%3B1%26quot%3B%20style%3D%26quot%3Bborder-style%3Asolid%3B%26quot%3B%26gt%3B%26lt%3Bp%20style%3D%26quot%3Bmargin%3A0px%3Bmargin-left%3A4px%3B%26quot%3B%26gt%3BSachGiaoKhoa(maSach%2C%20soLuong%2C%20ngayNhap%2C%20nhaXuatBan%2C%20thue)%26lt%3Bbr%26gt%3B%26lt%3B%2Fp%26gt%3B%26lt%3Bp%20style%3D%26quot%3Bmargin%3A0px%3Bmargin-left%3A4px%3B%26quot%3B%26gt%3B%26lt%3Bbr%26gt%3B%26lt%3B%2Fp%26gt%3B%26lt%3Bp%20style%3D%26quot%3Bmargin%3A0px%3Bmargin-left%3A4px%3B%26quot%3B%26gt%3B%2B%20thanhTien%3A%20void%26lt%3B%2Fp%26gt%3B%26lt%3Bp%20style%3D%26quot%3Bmargin%3A0px%3Bmargin-left%3A4px%3B%26quot%3B%26gt%3B-%20setter%20v%C3%A0%20getter%26lt%3Bbr%26gt%3B%26lt%3B%2Fp%26gt%3B%22%20style%3D%22verticalAlign%3Dtop%3Balign%3Dleft%3Boverflow%3Dfill%3Bhtml%3D1%3BwhiteSpace%3Dwrap%3B%22%20vertex%3D%221%22%20parent%3D%221%22%3E%3CmxGeometry%20x%3D%22300%22%20y%3D%221060%22%20width%3D%22180%22%20height%3D%22160%22%20as%3D%22geometry%22%2F%3E%3C%2FmxCell%3E%3CmxCell%20id%3D%224%22%20value%3D%22%26lt%3Bp%20style%3D%26quot%3Bmargin%3A0px%3Bmargin-top%3A4px%3Btext-align%3Acenter%3B%26quot%3B%26gt%3B%26lt%3Bb%26gt%3BSach%26lt%3B%2Fb%26gt%3B%26lt%3B%2Fp%26gt%3B%26lt%3Bhr%20size%3D%26quot%3B1%26quot%3B%20style%3D%26quot%3Bborder-style%3Asolid%3B%26quot%3B%26gt%3B%26lt%3Bp%20style%3D%26quot%3Bmargin%3A%200px%200px%200px%204px%3B%26quot%3B%26gt%3B-%20maSach%3A%20Double%26lt%3B%2Fp%26gt%3B%26lt%3Bp%20style%3D%26quot%3Bmargin%3A%200px%200px%200px%204px%3B%26quot%3B%26gt%3B-%20soLuong%3A%20Int%26lt%3B%2Fp%26gt%3B%26lt%3Bp%20style%3D%26quot%3Bmargin%3A%200px%200px%200px%204px%3B%26quot%3B%26gt%3B-%20ngayNhap%3A%20Date%26lt%3B%2Fp%26gt%3B%26lt%3Bp%20style%3D%26quot%3Bmargin%3A%200px%200px%200px%204px%3B%26quot%3B%26gt%3B-%20nhaXuatBan%3A%20String%26lt%3B%2Fp%26gt%3B%26lt%3Bp%20style%3D%26quot%3Bmargin%3A%200px%200px%200px%204px%3B%26quot%3B%26gt%3B%26lt%3Bbr%26gt%3B%26lt%3B%2Fp%26gt%3B%26lt%3Bhr%20size%3D%26quot%3B1%26quot%3B%20style%3D%26quot%3Bborder-style%3Asolid%3B%26quot%3B%26gt%3B%26lt%3Bp%20style%3D%26quot%3Bmargin%3A0px%3Bmargin-left%3A4px%3B%26quot%3B%26gt%3BSach()%26lt%3B%2Fp%26gt%3B%26lt%3Bp%20style%3D%26quot%3Bmargin%3A0px%3Bmargin-left%3A4px%3B%26quot%3B%26gt%3B%2B%20thanhTien%3A%20Double%26lt%3B%2Fp%26gt%3B%22%20style%3D%22verticalAlign%3Dtop%3Balign%3Dleft%3Boverflow%3Dfill%3Bhtml%3D1%3BwhiteSpace%3Dwrap%3B%22%20vertex%3D%221%22%20parent%3D%221%22%3E%3CmxGeometry%20x%3D%22480%22%20y%3D%22790%22%20width%3D%22160%22%20height%3D%22180%22%20as%3D%22geometry%22%2F%3E%3C%2FmxCell%3E%3CmxCell%20id%3D%225%22%20value%3D%22Extends%22%20style%3D%22endArrow%3Dblock%3BendSize%3D16%3BendFill%3D0%3Bhtml%3D1%3Brounded%3D0%3B%22%20edge%3D%221%22%20source%3D%222%22%20target%3D%224%22%20parent%3D%221%22%3E%3CmxGeometry%20width%3D%22160%22%20relative%3D%221%22%20as%3D%22geometry%22%3E%3CmxPoint%20x%3D%22360%22%20y%3D%22950%22%20as%3D%22sourcePoint%22%2F%3E%3CmxPoint%20x%3D%22520%22%20y%3D%22950%22%20as%3D%22targetPoint%22%2F%3E%3C%2FmxGeometry%3E%3C%2FmxCell%3E%3CmxCell%20id%3D%226%22%20value%3D%22Extends%22%20style%3D%22endArrow%3Dblock%3BendSize%3D16%3BendFill%3D0%3Bhtml%3D1%3Brounded%3D0%3B%22%20edge%3D%221%22%20source%3D%223%22%20parent%3D%221%22%3E%3CmxGeometry%20width%3D%22160%22%20relative%3D%221%22%20as%3D%22geometry%22%3E%3CmxPoint%20x%3D%22497%22%20y%3D%221030%22%20as%3D%22sourcePoint%22%2F%3E%3CmxPoint%20x%3D%22501%22%20y%3D%22970%22%20as%3D%22targetPoint%22%2F%3E%3C%2FmxGeometry%3E%3C%2FmxCell%3E%3CmxCell%20id%3D%227%22%20value%3D%22%26lt%3Bp%20style%3D%26quot%3Bmargin%3A0px%3Bmargin-top%3A4px%3Btext-align%3Acenter%3B%26quot%3B%26gt%3B%26lt%3Bb%26gt%3B%26amp%3Blt%3B%26amp%3Blt%3BImplement%26amp%3Bgt%3B%26amp%3Bgt%3B%26lt%3B%2Fb%26gt%3B%26lt%3B%2Fp%26gt%3B%26lt%3Bp%20style%3D%26quot%3Bmargin%3A0px%3Bmargin-top%3A4px%3Btext-align%3Acenter%3B%26quot%3B%26gt%3B%26lt%3Bb%26gt%3BSachService%26lt%3B%2Fb%26gt%3B%26lt%3B%2Fp%26gt%3B%26lt%3Bhr%20size%3D%26quot%3B1%26quot%3B%20style%3D%26quot%3Bborder-style%3Asolid%3B%26quot%3B%26gt%3B%26lt%3Bp%20style%3D%26quot%3Bmargin%3A0px%3Bmargin-left%3A4px%3B%26quot%3B%26gt%3B%26lt%3Bbr%26gt%3B%26lt%3B%2Fp%26gt%3B%26lt%3Bhr%20size%3D%26quot%3B1%26quot%3B%20style%3D%26quot%3Bborder-style%3Asolid%3B%26quot%3B%26gt%3B%26lt%3Bp%20style%3D%26quot%3Bmargin%3A0px%3Bmargin-left%3A4px%3B%26quot%3B%26gt%3B-%20themSach(Sach%20sach)%3A%20void%26lt%3B%2Fp%26gt%3B%26lt%3Bp%20style%3D%26quot%3Bmargin%3A0px%3Bmargin-left%3A4px%3B%26quot%3B%26gt%3B-%20xoaSach(int%20maSach)%3A%20void%26lt%3B%2Fp%26gt%3B%26lt%3Bp%20style%3D%26quot%3Bmargin%3A0px%3Bmargin-left%3A4px%3B%26quot%3B%26gt%3B-%20suaSach(Sach%20sach)%3A%20void%26lt%3B%2Fp%26gt%3B%26lt%3Bp%20style%3D%26quot%3Bmargin%3A0px%3Bmargin-left%3A4px%3B%26quot%3B%26gt%3B-%20timSach(id%20int)%3A%20List%26amp%3Blt%3BSach%26amp%3Bgt%3B%26lt%3B%2Fp%26gt%3B%26lt%3Bp%20style%3D%26quot%3Bmargin%3A0px%3Bmargin-left%3A4px%3B%26quot%3B%26gt%3B-%20tongTungLoai()%3A%20List%26amp%3Blt%3BSach%26amp%3Bgt%3B%26lt%3B%2Fp%26gt%3B%26lt%3Bp%20style%3D%26quot%3Bmargin%3A0px%3Bmargin-left%3A4px%3B%26quot%3B%26gt%3B-%20TBDGSTK()%3A%20List%26amp%3Blt%3BSach%26amp%3Bgt%3B%26lt%3B%2Fp%26gt%3B%26lt%3Bp%20style%3D%26quot%3Bmargin%3A0px%3Bmargin-left%3A4px%3B%26quot%3B%26gt%3B-%20XuatSGK()%3A%20List%26amp%3Blt%3BSach%26amp%3Bgt%3B%26lt%3B%2Fp%26gt%3B%22%20style%3D%22verticalAlign%3Dtop%3Balign%3Dleft%3Boverflow%3Dfill%3Bhtml%3D1%3BwhiteSpace%3Dwrap%3B%22%20vertex%3D%221%22%20parent%3D%221%22%3E%3CmxGeometry%20x%3D%22820%22%20y%3D%22780%22%20width%3D%22160%22%20height%3D%22210%22%20as%3D%22geometry%22%2F%3E%3C%2FmxCell%3E%3CmxCell%20id%3D%228%22%20value%3D%22%26lt%3Bp%20style%3D%26quot%3Bmargin%3A0px%3Bmargin-top%3A4px%3Btext-align%3Acenter%3B%26quot%3B%26gt%3B%26lt%3Bb%20style%3D%26quot%3Bbackground-color%3A%20initial%3B%26quot%3B%26gt%3BSachServiceImpl%26lt%3B%2Fb%26gt%3B%26lt%3Bbr%26gt%3B%26lt%3B%2Fp%26gt%3B%26lt%3Bhr%20size%3D%26quot%3B1%26quot%3B%20style%3D%26quot%3Bborder-style%3Asolid%3B%26quot%3B%26gt%3B%26lt%3Bp%20style%3D%26quot%3Bmargin%3A0px%3Bmargin-left%3A4px%3B%26quot%3B%26gt%3B%26lt%3Bspan%20style%3D%26quot%3Bbackground-color%3A%20initial%3B%20text-wrap%3A%20nowrap%3B%20text-align%3A%20center%3B%26quot%3B%26gt%3B-%20persistenceServiceRemote%26lt%3B%2Fspan%26gt%3B%26lt%3Bspan%20style%3D%26quot%3Btext-align%3A%20center%3B%20text-wrap%3A%20nowrap%3B%26quot%3B%26gt%3B%3A%20SachPersistenceService%26lt%3B%2Fspan%26gt%3B%26lt%3Bbr%26gt%3B%26lt%3B%2Fp%26gt%3B%26lt%3Bhr%20size%3D%26quot%3B1%26quot%3B%20style%3D%26quot%3Bborder-style%3Asolid%3B%26quot%3B%26gt%3B%26lt%3Bp%20style%3D%26quot%3Bmargin%3A0px%3Bmargin-left%3A4px%3B%26quot%3B%26gt%3B-%20themSach(Sach%20sach)%3A%20void%26lt%3B%2Fp%26gt%3B%26lt%3Bp%20style%3D%26quot%3Bmargin%3A0px%3Bmargin-left%3A4px%3B%26quot%3B%26gt%3B-%20xoaSach(int%20maSach)%3A%20void%26lt%3B%2Fp%26gt%3B%26lt%3Bp%20style%3D%26quot%3Bmargin%3A0px%3Bmargin-left%3A4px%3B%26quot%3B%26gt%3B-%20suaSach(Sach%20sach)%3A%20void%26lt%3B%2Fp%26gt%3B%26lt%3Bp%20style%3D%26quot%3Bmargin%3A0px%3Bmargin-left%3A4px%3B%26quot%3B%26gt%3B-%20timSach(id%20int)%3A%20List%26amp%3Blt%3BSach%26amp%3Bgt%3B%26lt%3B%2Fp%26gt%3B%26lt%3Bp%20style%3D%26quot%3Bmargin%3A%200px%200px%200px%204px%3B%26quot%3B%26gt%3B-%20tongTungLoai()%3A%20List%26amp%3Blt%3BSach%26amp%3Bgt%3B%26lt%3B%2Fp%26gt%3B%26lt%3Bp%20style%3D%26quot%3Bmargin%3A0px%3Bmargin-left%3A4px%3B%26quot%3B%26gt%3B%26lt%3Bspan%20style%3D%26quot%3Bbackground-color%3A%20initial%3B%26quot%3B%26gt%3B-%20TBDGSTK()%3A%20List%26amp%3Blt%3BSach%26amp%3Bgt%3B%26lt%3B%2Fspan%26gt%3B%26lt%3Bbr%26gt%3B%26lt%3B%2Fp%26gt%3B%26lt%3Bp%20style%3D%26quot%3Bmargin%3A0px%3Bmargin-left%3A4px%3B%26quot%3B%26gt%3B-%20XuatSGK()%3A%20List%26amp%3Blt%3BSach%26amp%3Bgt%3B%26lt%3B%2Fp%26gt%3B%22%20style%3D%22verticalAlign%3Dtop%3Balign%3Dleft%3Boverflow%3Dfill%3Bhtml%3D1%3BwhiteSpace%3Dwrap%3B%22%20vertex%3D%221%22%20parent%3D%221%22%3E%3CmxGeometry%20x%3D%221080%22%20y%3D%221050%22%20width%3D%22300%22%20height%3D%22200%22%20as%3D%22geometry%22%2F%3E%3C%2FmxCell%3E%3CmxCell%20id%3D%229%22%20value%3D%22Use%22%20style%3D%22endArrow%3Dopen%3BendSize%3D12%3Bdashed%3D1%3Bhtml%3D1%3Brounded%3D0%3B%22%20edge%3D%221%22%20source%3D%227%22%20target%3D%224%22%20parent%3D%221%22%3E%3CmxGeometry%20width%3D%22160%22%20relative%3D%221%22%20as%3D%22geometry%22%3E%3CmxPoint%20x%3D%22800%22%20y%3D%221030%22%20as%3D%22sourcePoint%22%2F%3E%3CmxPoint%20x%3D%22960%22%20y%3D%221030%22%20as%3D%22targetPoint%22%2F%3E%3C%2FmxGeometry%3E%3C%2FmxCell%3E%3CmxCell%20id%3D%2210%22%20value%3D%22%22%20style%3D%22endArrow%3Dblock%3Bdashed%3D1%3BendFill%3D0%3BendSize%3D12%3Bhtml%3D1%3Brounded%3D0%3B%22%20edge%3D%221%22%20source%3D%228%22%20target%3D%227%22%20parent%3D%221%22%3E%3CmxGeometry%20width%3D%22160%22%20relative%3D%221%22%20as%3D%22geometry%22%3E%3CmxPoint%20x%3D%22820%22%20y%3D%22950%22%20as%3D%22sourcePoint%22%2F%3E%3CmxPoint%20x%3D%22980%22%20y%3D%22950%22%20as%3D%22targetPoint%22%2F%3E%3C%2FmxGeometry%3E%3C%2FmxCell%3E%3CmxCell%20id%3D%2211%22%20value%3D%22%26lt%3Bp%20style%3D%26quot%3Bmargin%3A0px%3Bmargin-top%3A4px%3Btext-align%3Acenter%3B%26quot%3B%26gt%3B%26lt%3Bb%26gt%3B%26amp%3Blt%3B%26amp%3Blt%3Binterface%26amp%3Bgt%3B%26amp%3Bgt%3B%26lt%3B%2Fb%26gt%3B%26lt%3B%2Fp%26gt%3B%26lt%3Bp%20style%3D%26quot%3Bmargin%3A0px%3Bmargin-top%3A4px%3Btext-align%3Acenter%3B%26quot%3B%26gt%3B%26lt%3Bb%26gt%3Bsubscriber%26lt%3B%2Fb%26gt%3B%26lt%3B%2Fp%26gt%3B%26lt%3Bhr%20size%3D%26quot%3B1%26quot%3B%20style%3D%26quot%3Bborder-style%3Asolid%3B%26quot%3B%26gt%3B%26lt%3Bp%20style%3D%26quot%3Bmargin%3A0px%3Bmargin-left%3A4px%3B%26quot%3B%26gt%3B%26lt%3Bbr%26gt%3B%26lt%3B%2Fp%26gt%3B%26lt%3Bhr%20size%3D%26quot%3B1%26quot%3B%20style%3D%26quot%3Bborder-style%3Asolid%3B%26quot%3B%26gt%3B%26lt%3Bp%20style%3D%26quot%3Bmargin%3A0px%3Bmargin-left%3A4px%3B%26quot%3B%26gt%3B%2B%20%26lt%3Bi%26gt%3Bupdate()%3A%20void%26lt%3B%2Fi%26gt%3B%26lt%3B%2Fp%26gt%3B%22%20style%3D%22verticalAlign%3Dtop%3Balign%3Dleft%3Boverflow%3Dfill%3Bhtml%3D1%3BwhiteSpace%3Dwrap%3B%22%20vertex%3D%221%22%20parent%3D%221%22%3E%3CmxGeometry%20x%3D%221690%22%20y%3D%22830%22%20width%3D%22230%22%20height%3D%22140%22%20as%3D%22geometry%22%2F%3E%3C%2FmxCell%3E%3CmxCell%20id%3D%2212%22%20value%3D%22%22%20style%3D%22endArrow%3DdiamondThin%3BendFill%3D0%3BendSize%3D24%3Bhtml%3D1%3Brounded%3D0%3BexitX%3D0.5%3BexitY%3D1%3BexitDx%3D0%3BexitDy%3D0%3BentryX%3D0.893%3BentryY%3D0.638%3BentryDx%3D0%3BentryDy%3D0%3BentryPerimeter%3D0%3B%22%20edge%3D%221%22%20parent%3D%221%22%3E%3CmxGeometry%20width%3D%22160%22%20relative%3D%221%22%20as%3D%22geometry%22%3E%3CmxPoint%20x%3D%221810%22%20y%3D%22970%22%20as%3D%22sourcePoint%22%2F%3E%3CmxPoint%20x%3D%221841.1800000000003%22%20y%3D%221150.2200000000003%22%20as%3D%22targetPoint%22%2F%3E%3C%2FmxGeometry%3E%3C%2FmxCell%3E%3CmxCell%20id%3D%2213%22%20value%3D%22%26lt%3Bp%20style%3D%26quot%3Bmargin%3A0px%3Bmargin-top%3A4px%3Btext-align%3Acenter%3B%26quot%3B%26gt%3B%26lt%3Bb%26gt%3Bpublisher%26lt%3B%2Fb%26gt%3B%26lt%3B%2Fp%26gt%3B%26lt%3Bhr%20size%3D%26quot%3B1%26quot%3B%20style%3D%26quot%3Bborder-style%3Asolid%3B%26quot%3B%26gt%3B%26lt%3Bp%20style%3D%26quot%3Bmargin%3A0px%3Bmargin-left%3A4px%3B%26quot%3B%26gt%3B-%20subscribers%3A%20List%26amp%3Blt%3BSubscriber%26amp%3Bgt%3B%26lt%3B%2Fp%26gt%3B%26lt%3Bhr%20size%3D%26quot%3B1%26quot%3B%20style%3D%26quot%3Bborder-style%3Asolid%3B%26quot%3B%26gt%3B%26lt%3Bp%20style%3D%26quot%3Bmargin%3A0px%3Bmargin-left%3A4px%3B%26quot%3B%26gt%3B%2B%20subscriber(Subscriber%20subscriber)%3A%20void%26lt%3B%2Fp%26gt%3B%26lt%3Bp%20style%3D%26quot%3Bmargin%3A0px%3Bmargin-left%3A4px%3B%26quot%3B%26gt%3B%2B%20unsubscriber(Subscriber%20subscriber)%3A%20void%26lt%3B%2Fp%26gt%3B%26lt%3Bp%20style%3D%26quot%3Bmargin%3A0px%3Bmargin-left%3A4px%3B%26quot%3B%26gt%3B%2B%20notifySubsribers()%3A%20void%26lt%3B%2Fp%26gt%3B%22%20style%3D%22verticalAlign%3Dtop%3Balign%3Dleft%3Boverflow%3Dfill%3Bhtml%3D1%3BwhiteSpace%3Dwrap%3B%22%20vertex%3D%221%22%20parent%3D%221%22%3E%3CmxGeometry%20x%3D%221730%22%20y%3D%221150%22%20width%3D%22230%22%20height%3D%22140%22%20as%3D%22geometry%22%2F%3E%3C%2FmxCell%3E%3CmxCell%20id%3D%2214%22%20value%3D%22Extends%22%20style%3D%22endArrow%3Dblock%3BendSize%3D16%3BendFill%3D0%3Bhtml%3D1%3Brounded%3D0%3B%22%20edge%3D%221%22%20parent%3D%221%22%3E%3CmxGeometry%20width%3D%22160%22%20relative%3D%221%22%20as%3D%22geometry%22%3E%3CmxPoint%20x%3D%221380%22%20y%3D%221175%22%20as%3D%22sourcePoint%22%2F%3E%3CmxPoint%20x%3D%221730%22%20y%3D%221220%22%20as%3D%22targetPoint%22%2F%3E%3C%2FmxGeometry%3E%3C%2FmxCell%3E%3C%2Froot%3E%3C%2FmxGraphModel%3E&lt;/span&gt;&lt;span style=&quot;color: rgba(0, 0, 0, 0); font-family: monospace; font-size: 0px; text-align: start; text-wrap: nowrap;&quot;&gt;%3CmxGraphModel%3E%3Croot%3E%3CmxCell%20id%3D%220%22%2F%3E%3CmxCell%20id%3D%221%22%20parent%3D%220%22%2F%3E%3CmxCell%20id%3D%222%22%20value%3D%22%26lt%3Bp%20style%3D%26quot%3Bmargin%3A0px%3Bmargin-top%3A4px%3Btext-align%3Acenter%3B%26quot%3B%26gt%3B%26lt%3Bb%26gt%3BSachGiaoKhoa%26lt%3B%2Fb%26gt%3B%26lt%3B%2Fp%26gt%3B%26lt%3Bhr%20size%3D%26quot%3B1%26quot%3B%20style%3D%26quot%3Bborder-style%3Asolid%3B%26quot%3B%26gt%3B%26lt%3Bp%20style%3D%26quot%3Bmargin%3A0px%3Bmargin-left%3A4px%3B%26quot%3B%26gt%3B-%20tinhTrang%3A%20String%26lt%3B%2Fp%26gt%3B%26lt%3Bhr%20size%3D%26quot%3B1%26quot%3B%20style%3D%26quot%3Bborder-style%3Asolid%3B%26quot%3B%26gt%3B%26lt%3Bp%20style%3D%26quot%3Bmargin%3A0px%3Bmargin-left%3A4px%3B%26quot%3B%26gt%3BSachGiaoKhoa(maSach%2C%20soLuong%2C%20ngayNhap%2C%20nhaXuatBan%2C%20tinhTrang)%26lt%3B%2Fp%26gt%3B%26lt%3Bp%20style%3D%26quot%3Bmargin%3A0px%3Bmargin-left%3A4px%3B%26quot%3B%26gt%3B%26lt%3Bbr%26gt%3B%26lt%3B%2Fp%26gt%3B%26lt%3Bp%20style%3D%26quot%3Bmargin%3A0px%3Bmargin-left%3A4px%3B%26quot%3B%26gt%3B%2B%20thanhTien%3A%20void%26lt%3B%2Fp%26gt%3B%26lt%3Bp%20style%3D%26quot%3Bmargin%3A0px%3Bmargin-left%3A4px%3B%26quot%3B%26gt%3B-%20setter%20v%C3%A0%20getter%26lt%3B%2Fp%26gt%3B%26lt%3Bp%20style%3D%26quot%3Bmargin%3A0px%3Bmargin-left%3A4px%3B%26quot%3B%26gt%3B%26lt%3Bbr%26gt%3B%26lt%3B%2Fp%26gt%3B%22%20style%3D%22verticalAlign%3Dtop%3Balign%3Dleft%3Boverflow%3Dfill%3Bhtml%3D1%3BwhiteSpace%3Dwrap%3B%22%20vertex%3D%221%22%20parent%3D%221%22%3E%3CmxGeometry%20x%3D%22150%22%20y%3D%22840%22%20width%3D%22190%22%20height%3D%22160%22%20as%3D%22geometry%22%2F%3E%3C%2FmxCell%3E%3CmxCell%20id%3D%223%22%20value%3D%22%26lt%3Bp%20style%3D%26quot%3Bmargin%3A0px%3Bmargin-top%3A4px%3Btext-align%3Acenter%3B%26quot%3B%26gt%3B%26lt%3Bb%26gt%3BsachThamKhao%26lt%3B%2Fb%26gt%3B%26lt%3B%2Fp%26gt%3B%26lt%3Bhr%20size%3D%26quot%3B1%26quot%3B%20style%3D%26quot%3Bborder-style%3Asolid%3B%26quot%3B%26gt%3B%26lt%3Bp%20style%3D%26quot%3Bmargin%3A0px%3Bmargin-left%3A4px%3B%26quot%3B%26gt%3B-%20thue%3A%20Double%26lt%3Bbr%26gt%3B%26lt%3B%2Fp%26gt%3B%26lt%3Bhr%20size%3D%26quot%3B1%26quot%3B%20style%3D%26quot%3Bborder-style%3Asolid%3B%26quot%3B%26gt%3B%26lt%3Bp%20style%3D%26quot%3Bmargin%3A0px%3Bmargin-left%3A4px%3B%26quot%3B%26gt%3BSachGiaoKhoa(maSach%2C%20soLuong%2C%20ngayNhap%2C%20nhaXuatBan%2C%20thue)%26lt%3Bbr%26gt%3B%26lt%3B%2Fp%26gt%3B%26lt%3Bp%20style%3D%26quot%3Bmargin%3A0px%3Bmargin-left%3A4px%3B%26quot%3B%26gt%3B%26lt%3Bbr%26gt%3B%26lt%3B%2Fp%26gt%3B%26lt%3Bp%20style%3D%26quot%3Bmargin%3A0px%3Bmargin-left%3A4px%3B%26quot%3B%26gt%3B%2B%20thanhTien%3A%20void%26lt%3B%2Fp%26gt%3B%26lt%3Bp%20style%3D%26quot%3Bmargin%3A0px%3Bmargin-left%3A4px%3B%26quot%3B%26gt%3B-%20setter%20v%C3%A0%20getter%26lt%3Bbr%26gt%3B%26lt%3B%2Fp%26gt%3B%22%20style%3D%22verticalAlign%3Dtop%3Balign%3Dleft%3Boverflow%3Dfill%3Bhtml%3D1%3BwhiteSpace%3Dwrap%3B%22%20vertex%3D%221%22%20parent%3D%221%22%3E%3CmxGeometry%20x%3D%22300%22%20y%3D%221060%22%20width%3D%22180%22%20height%3D%22160%22%20as%3D%22geometry%22%2F%3E%3C%2FmxCell%3E%3CmxCell%20id%3D%224%22%20value%3D%22%26lt%3Bp%20style%3D%26quot%3Bmargin%3A0px%3Bmargin-top%3A4px%3Btext-align%3Acenter%3B%26quot%3B%26gt%3B%26lt%3Bb%26gt%3BSach%26lt%3B%2Fb%26gt%3B%26lt%3B%2Fp%26gt%3B%26lt%3Bhr%20size%3D%26quot%3B1%26quot%3B%20style%3D%26quot%3Bborder-style%3Asolid%3B%26quot%3B%26gt%3B%26lt%3Bp%20style%3D%26quot%3Bmargin%3A%200px%200px%200px%204px%3B%26quot%3B%26gt%3B-%20maSach%3A%20Double%26lt%3B%2Fp%26gt%3B%26lt%3Bp%20style%3D%26quot%3Bmargin%3A%200px%200px%200px%204px%3B%26quot%3B%26gt%3B-%20soLuong%3A%20Int%26lt%3B%2Fp%26gt%3B%26lt%3Bp%20style%3D%26quot%3Bmargin%3A%200px%200px%200px%204px%3B%26quot%3B%26gt%3B-%20ngayNhap%3A%20Date%26lt%3B%2Fp%26gt%3B%26lt%3Bp%20style%3D%26quot%3Bmargin%3A%200px%200px%200px%204px%3B%26quot%3B%26gt%3B-%20nhaXuatBan%3A%20String%26lt%3B%2Fp%26gt%3B%26lt%3Bp%20style%3D%26quot%3Bmargin%3A%200px%200px%200px%204px%3B%26quot%3B%26gt%3B%26lt%3Bbr%26gt%3B%26lt%3B%2Fp%26gt%3B%26lt%3Bhr%20size%3D%26quot%3B1%26quot%3B%20style%3D%26quot%3Bborder-style%3Asolid%3B%26quot%3B%26gt%3B%26lt%3Bp%20style%3D%26quot%3Bmargin%3A0px%3Bmargin-left%3A4px%3B%26quot%3B%26gt%3BSach()%26lt%3B%2Fp%26gt%3B%26lt%3Bp%20style%3D%26quot%3Bmargin%3A0px%3Bmargin-left%3A4px%3B%26quot%3B%26gt%3B%2B%20thanhTien%3A%20Double%26lt%3B%2Fp%26gt%3B%22%20style%3D%22verticalAlign%3Dtop%3Balign%3Dleft%3Boverflow%3Dfill%3Bhtml%3D1%3BwhiteSpace%3Dwrap%3B%22%20vertex%3D%221%22%20parent%3D%221%22%3E%3CmxGeometry%20x%3D%22480%22%20y%3D%22790%22%20width%3D%22160%22%20height%3D%22180%22%20as%3D%22geometry%22%2F%3E%3C%2FmxCell%3E%3CmxCell%20id%3D%225%22%20value%3D%22Extends%22%20style%3D%22endArrow%3Dblock%3BendSize%3D16%3BendFill%3D0%3Bhtml%3D1%3Brounded%3D0%3B%22%20edge%3D%221%22%20source%3D%222%22%20target%3D%224%22%20parent%3D%221%22%3E%3CmxGeometry%20width%3D%22160%22%20relative%3D%221%22%20as%3D%22geometry%22%3E%3CmxPoint%20x%3D%22360%22%20y%3D%22950%22%20as%3D%22sourcePoint%22%2F%3E%3CmxPoint%20x%3D%22520%22%20y%3D%22950%22%20as%3D%22targetPoint%22%2F%3E%3C%2FmxGeometry%3E%3C%2FmxCell%3E%3CmxCell%20id%3D%226%22%20value%3D%22Extends%22%20style%3D%22endArrow%3Dblock%3BendSize%3D16%3BendFill%3D0%3Bhtml%3D1%3Brounded%3D0%3B%22%20edge%3D%221%22%20source%3D%223%22%20parent%3D%221%22%3E%3CmxGeometry%20width%3D%22160%22%20relative%3D%221%22%20as%3D%22geometry%22%3E%3CmxPoint%20x%3D%22497%22%20y%3D%221030%22%20as%3D%22sourcePoint%22%2F%3E%3CmxPoint%20x%3D%22501%22%20y%3D%22970%22%20as%3D%22targetPoint%22%2F%3E%3C%2FmxGeometry%3E%3C%2FmxCell%3E%3CmxCell%20id%3D%227%22%20value%3D%22%26lt%3Bp%20style%3D%26quot%3Bmargin%3A0px%3Bmargin-top%3A4px%3Btext-align%3Acenter%3B%26quot%3B%26gt%3B%26lt%3Bb%26gt%3B%26amp%3Blt%3B%26amp%3Blt%3BImplement%26amp%3Bgt%3B%26amp%3Bgt%3B%26lt%3B%2Fb%26gt%3B%26lt%3B%2Fp%26gt%3B%26lt%3Bp%20style%3D%26quot%3Bmargin%3A0px%3Bmargin-top%3A4px%3Btext-align%3Acenter%3B%26quot%3B%26gt%3B%26lt%3Bb%26gt%3BSachService%26lt%3B%2Fb%26gt%3B%26lt%3B%2Fp%26gt%3B%26lt%3Bhr%20size%3D%26quot%3B1%26quot%3B%20style%3D%26quot%3Bborder-style%3Asolid%3B%26quot%3B%26gt%3B%26lt%3Bp%20style%3D%26quot%3Bmargin%3A0px%3Bmargin-left%3A4px%3B%26quot%3B%26gt%3B%26lt%3Bbr%26gt%3B%26lt%3B%2Fp%26gt%3B%26lt%3Bhr%20size%3D%26quot%3B1%26quot%3B%20style%3D%26quot%3Bborder-style%3Asolid%3B%26quot%3B%26gt%3B%26lt%3Bp%20style%3D%26quot%3Bmargin%3A0px%3Bmargin-left%3A4px%3B%26quot%3B%26gt%3B-%20themSach(Sach%20sach)%3A%20void%26lt%3B%2Fp%26gt%3B%26lt%3Bp%20style%3D%26quot%3Bmargin%3A0px%3Bmargin-left%3A4px%3B%26quot%3B%26gt%3B-%20xoaSach(int%20maSach)%3A%20void%26lt%3B%2Fp%26gt%3B%26lt%3Bp%20style%3D%26quot%3Bmargin%3A0px%3Bmargin-left%3A4px%3B%26quot%3B%26gt%3B-%20suaSach(Sach%20sach)%3A%20void%26lt%3B%2Fp%26gt%3B%26lt%3Bp%20style%3D%26quot%3Bmargin%3A0px%3Bmargin-left%3A4px%3B%26quot%3B%26gt%3B-%20timSach(id%20int)%3A%20List%26amp%3Blt%3BSach%26amp%3Bgt%3B%26lt%3B%2Fp%26gt%3B%26lt%3Bp%20style%3D%26quot%3Bmargin%3A0px%3Bmargin-left%3A4px%3B%26quot%3B%26gt%3B-%20tongTungLoai()%3A%20List%26amp%3Blt%3BSach%26amp%3Bgt%3B%26lt%3B%2Fp%26gt%3B%26lt%3Bp%20style%3D%26quot%3Bmargin%3A0px%3Bmargin-left%3A4px%3B%26quot%3B%26gt%3B-%20TBDGSTK()%3A%20List%26amp%3Blt%3BSach%26amp%3Bgt%3B%26lt%3B%2Fp%26gt%3B%26lt%3Bp%20style%3D%26quot%3Bmargin%3A0px%3Bmargin-left%3A4px%3B%26quot%3B%26gt%3B-%20XuatSGK()%3A%20List%26amp%3Blt%3BSach%26amp%3Bgt%3B%26lt%3B%2Fp%26gt%3B%22%20style%3D%22verticalAlign%3Dtop%3Balign%3Dleft%3Boverflow%3Dfill%3Bhtml%3D1%3BwhiteSpace%3Dwrap%3B%22%20vertex%3D%221%22%20parent%3D%221%22%3E%3CmxGeometry%20x%3D%22820%22%20y%3D%22780%22%20width%3D%22160%22%20height%3D%22210%22%20as%3D%22geometry%22%2F%3E%3C%2FmxCell%3E%3CmxCell%20id%3D%228%22%20value%3D%22%26lt%3Bp%20style%3D%26quot%3Bmargin%3A0px%3Bmargin-top%3A4px%3Btext-align%3Acenter%3B%26quot%3B%26gt%3B%26lt%3Bb%20style%3D%26quot%3Bbackground-color%3A%20initial%3B%26quot%3B%26gt%3BSachServiceImpl%26lt%3B%2Fb%26gt%3B%26lt%3Bbr%26gt%3B%26lt%3B%2Fp%26gt%3B%26lt%3Bhr%20size%3D%26quot%3B1%26quot%3B%20style%3D%26quot%3Bborder-style%3Asolid%3B%26quot%3B%26gt%3B%26lt%3Bp%20style%3D%26quot%3Bmargin%3A0px%3Bmargin-left%3A4px%3B%26quot%3B%26gt%3B%26lt%3Bspan%20style%3D%26quot%3Bbackground-color%3A%20initial%3B%20text-wrap%3A%20nowrap%3B%20text-align%3A%20center%3B%26quot%3B%26gt%3B-%20persistenceServiceRemote%26lt%3B%2Fspan%26gt%3B%26lt%3Bspan%20style%3D%26quot%3Btext-align%3A%20center%3B%20text-wrap%3A%20nowrap%3B%26quot%3B%26gt%3B%3A%20SachPersistenceService%26lt%3B%2Fspan%26gt%3B%26lt%3Bbr%26gt%3B%26lt%3B%2Fp%26gt%3B%26lt%3Bhr%20size%3D%26quot%3B1%26quot%3B%20style%3D%26quot%3Bborder-style%3Asolid%3B%26quot%3B%26gt%3B%26lt%3Bp%20style%3D%26quot%3Bmargin%3A0px%3Bmargin-left%3A4px%3B%26quot%3B%26gt%3B-%20themSach(Sach%20sach)%3A%20void%26lt%3B%2Fp%26gt%3B%26lt%3Bp%20style%3D%26quot%3Bmargin%3A0px%3Bmargin-left%3A4px%3B%26quot%3B%26gt%3B-%20xoaSach(int%20maSach)%3A%20void%26lt%3B%2Fp%26gt%3B%26lt%3Bp%20style%3D%26quot%3Bmargin%3A0px%3Bmargin-left%3A4px%3B%26quot%3B%26gt%3B-%20suaSach(Sach%20sach)%3A%20void%26lt%3B%2Fp%26gt%3B%26lt%3Bp%20style%3D%26quot%3Bmargin%3A0px%3Bmargin-left%3A4px%3B%26quot%3B%26gt%3B-%20timSach(id%20int)%3A%20List%26amp%3Blt%3BSach%26amp%3Bgt%3B%26lt%3B%2Fp%26gt%3B%26lt%3Bp%20style%3D%26quot%3Bmargin%3A%200px%200px%200px%204px%3B%26quot%3B%26gt%3B-%20tongTungLoai()%3A%20List%26amp%3Blt%3BSach%26amp%3Bgt%3B%26lt%3B%2Fp%26gt%3B%26lt%3Bp%20style%3D%26quot%3Bmargin%3A0px%3Bmargin-left%3A4px%3B%26quot%3B%26gt%3B%26lt%3Bspan%20style%3D%26quot%3Bbackground-color%3A%20initial%3B%26quot%3B%26gt%3B-%20TBDGSTK()%3A%20List%26amp%3Blt%3BSach%26amp%3Bgt%3B%26lt%3B%2Fspan%26gt%3B%26lt%3Bbr%26gt%3B%26lt%3B%2Fp%26gt%3B%26lt%3Bp%20style%3D%26quot%3Bmargin%3A0px%3Bmargin-left%3A4px%3B%26quot%3B%26gt%3B-%20XuatSGK()%3A%20List%26amp%3Blt%3BSach%26amp%3Bgt%3B%26lt%3B%2Fp%26gt%3B%22%20style%3D%22verticalAlign%3Dtop%3Balign%3Dleft%3Boverflow%3Dfill%3Bhtml%3D1%3BwhiteSpace%3Dwrap%3B%22%20vertex%3D%221%22%20parent%3D%221%22%3E%3CmxGeometry%20x%3D%221080%22%20y%3D%221050%22%20width%3D%22300%22%20height%3D%22200%22%20as%3D%22geometry%22%2F%3E%3C%2FmxCell%3E%3CmxCell%20id%3D%229%22%20value%3D%22Use%22%20style%3D%22endArrow%3Dopen%3BendSize%3D12%3Bdashed%3D1%3Bhtml%3D1%3Brounded%3D0%3B%22%20edge%3D%221%22%20source%3D%227%22%20target%3D%224%22%20parent%3D%221%22%3E%3CmxGeometry%20width%3D%22160%22%20relative%3D%221%22%20as%3D%22geometry%22%3E%3CmxPoint%20x%3D%22800%22%20y%3D%221030%22%20as%3D%22sourcePoint%22%2F%3E%3CmxPoint%20x%3D%22960%22%20y%3D%221030%22%20as%3D%22targetPoint%22%2F%3E%3C%2FmxGeometry%3E%3C%2FmxCell%3E%3CmxCell%20id%3D%2210%22%20value%3D%22%22%20style%3D%22endArrow%3Dblock%3Bdashed%3D1%3BendFill%3D0%3BendSize%3D12%3Bhtml%3D1%3Brounded%3D0%3B%22%20edge%3D%221%22%20source%3D%228%22%20target%3D%227%22%20parent%3D%221%22%3E%3CmxGeometry%20width%3D%22160%22%20relative%3D%221%22%20as%3D%22geometry%22%3E%3CmxPoint%20x%3D%22820%22%20y%3D%22950%22%20as%3D%22sourcePoint%22%2F%3E%3CmxPoint%20x%3D%22980%22%20y%3D%22950%22%20as%3D%22targetPoint%22%2F%3E%3C%2FmxGeometry%3E%3C%2FmxCell%3E%3CmxCell%20id%3D%2211%22%20value%3D%22%26lt%3Bp%20style%3D%26quot%3Bmargin%3A0px%3Bmargin-top%3A4px%3Btext-align%3Acenter%3B%26quot%3B%26gt%3B%26lt%3Bb%26gt%3B%26amp%3Blt%3B%26amp%3Blt%3Binterface%26amp%3Bgt%3B%26amp%3Bgt%3B%26lt%3B%2Fb%26gt%3B%26lt%3B%2Fp%26gt%3B%26lt%3Bp%20style%3D%26quot%3Bmargin%3A0px%3Bmargin-top%3A4px%3Btext-align%3Acenter%3B%26quot%3B%26gt%3B%26lt%3Bb%26gt%3Bsubscriber%26lt%3B%2Fb%26gt%3B%26lt%3B%2Fp%26gt%3B%26lt%3Bhr%20size%3D%26quot%3B1%26quot%3B%20style%3D%26quot%3Bborder-style%3Asolid%3B%26quot%3B%26gt%3B%26lt%3Bp%20style%3D%26quot%3Bmargin%3A0px%3Bmargin-left%3A4px%3B%26quot%3B%26gt%3B%26lt%3Bbr%26gt%3B%26lt%3B%2Fp%26gt%3B%26lt%3Bhr%20size%3D%26quot%3B1%26quot%3B%20style%3D%26quot%3Bborder-style%3Asolid%3B%26quot%3B%26gt%3B%26lt%3Bp%20style%3D%26quot%3Bmargin%3A0px%3Bmargin-left%3A4px%3B%26quot%3B%26gt%3B%2B%20%26lt%3Bi%26gt%3Bupdate()%3A%20void%26lt%3B%2Fi%26gt%3B%26lt%3B%2Fp%26gt%3B%22%20style%3D%22verticalAlign%3Dtop%3Balign%3Dleft%3Boverflow%3Dfill%3Bhtml%3D1%3BwhiteSpace%3Dwrap%3B%22%20vertex%3D%221%22%20parent%3D%221%22%3E%3CmxGeometry%20x%3D%221690%22%20y%3D%22830%22%20width%3D%22230%22%20height%3D%22140%22%20as%3D%22geometry%22%2F%3E%3C%2FmxCell%3E%3CmxCell%20id%3D%2212%22%20value%3D%22%22%20style%3D%22endArrow%3DdiamondThin%3BendFill%3D0%3BendSize%3D24%3Bhtml%3D1%3Brounded%3D0%3BexitX%3D0.5%3BexitY%3D1%3BexitDx%3D0%3BexitDy%3D0%3BentryX%3D0.893%3BentryY%3D0.638%3BentryDx%3D0%3BentryDy%3D0%3BentryPerimeter%3D0%3B%22%20edge%3D%221%22%20parent%3D%221%22%3E%3CmxGeometry%20width%3D%22160%22%20relative%3D%221%22%20as%3D%22geometry%22%3E%3CmxPoint%20x%3D%221810%22%20y%3D%22970%22%20as%3D%22sourcePoint%22%2F%3E%3CmxPoint%20x%3D%221841.1800000000003%22%20y%3D%221150.2200000000003%22%20as%3D%22targetPoint%22%2F%3E%3C%2FmxGeometry%3E%3C%2FmxCell%3E%3CmxCell%20id%3D%2213%22%20value%3D%22%26lt%3Bp%20style%3D%26quot%3Bmargin%3A0px%3Bmargin-top%3A4px%3Btext-align%3Acenter%3B%26quot%3B%26gt%3B%26lt%3Bb%26gt%3Bpublisher%26lt%3B%2Fb%26gt%3B%26lt%3B%2Fp%26gt%3B%26lt%3Bhr%20size%3D%26quot%3B1%26quot%3B%20style%3D%26quot%3Bborder-style%3Asolid%3B%26quot%3B%26gt%3B%26lt%3Bp%20style%3D%26quot%3Bmargin%3A0px%3Bmargin-left%3A4px%3B%26quot%3B%26gt%3B-%20subscribers%3A%20List%26amp%3Blt%3BSubscriber%26amp%3Bgt%3B%26lt%3B%2Fp%26gt%3B%26lt%3Bhr%20size%3D%26quot%3B1%26quot%3B%20style%3D%26quot%3Bborder-style%3Asolid%3B%26quot%3B%26gt%3B%26lt%3Bp%20style%3D%26quot%3Bmargin%3A0px%3Bmargin-left%3A4px%3B%26quot%3B%26gt%3B%2B%20subscriber(Subscriber%20subscriber)%3A%20void%26lt%3B%2Fp%26gt%3B%26lt%3Bp%20style%3D%26quot%3Bmargin%3A0px%3Bmargin-left%3A4px%3B%26quot%3B%26gt%3B%2B%20unsubscriber(Subscriber%20subscriber)%3A%20void%26lt%3B%2Fp%26gt%3B%26lt%3Bp%20style%3D%26quot%3Bmargin%3A0px%3Bmargin-left%3A4px%3B%26quot%3B%26gt%3B%2B%20notifySubsribers()%3A%20void%26lt%3B%2Fp%26gt%3B%22%20style%3D%22verticalAlign%3Dtop%3Balign%3Dleft%3Boverflow%3Dfill%3Bhtml%3D1%3BwhiteSpace%3Dwrap%3B%22%20vertex%3D%221%22%20parent%3D%221%22%3E%3CmxGeometry%20x%3D%221730%22%20y%3D%221150%22%20width%3D%22230%22%20height%3D%22140%22%20as%3D%22geometry%22%2F%3E%3C%2FmxCell%3E%3CmxCell%20id%3D%2214%22%20value%3D%22Extends%22%20style%3D%22endArrow%3Dblock%3BendSize%3D16%3BendFill%3D0%3Bhtml%3D1%3Brounded%3D0%3B%22%20edge%3D%221%22%20parent%3D%221%22%3E%3CmxGeometry%20width%3D%22160%22%20relative%3D%221%22%20as%3D%22geometry%22%3E%3CmxPoint%20x%3D%221380%22%20y%3D%221175%22%20as%3D%22sourcePoint%22%2F%3E%3CmxPoint%20x%3D%221730%22%20y%3D%221220%22%20as%3D%22targetPoint%22%2F%3E%3C%2FmxGeometry%3E%3C%2FmxCell%3E%3C%2Froot%3E%3C%2FmxGraphModel%3E&lt;/span&gt;" style="rounded=0;whiteSpace=wrap;html=1;fillColor=#33FF99;" parent="1" vertex="1">
          <mxGeometry x="-71" y="710" width="2191" height="690" as="geometry" />
        </mxCell>
        <mxCell id="h_kPDkXWWDrsntsU_vFJ-3" value="" style="rounded=0;whiteSpace=wrap;html=1;fillColor=#FF6666;" parent="1" vertex="1">
          <mxGeometry x="260" y="1440" width="1860" height="670" as="geometry" />
        </mxCell>
        <mxCell id="h_kPDkXWWDrsntsU_vFJ-4" value="&lt;font style=&quot;font-size: 48px;&quot;&gt;&lt;b&gt;Presentation&lt;/b&gt;&lt;/font&gt;" style="text;html=1;align=center;verticalAlign=middle;whiteSpace=wrap;rounded=0;" parent="1" vertex="1">
          <mxGeometry x="-800" y="-1040" width="305" height="30" as="geometry" />
        </mxCell>
        <mxCell id="h_kPDkXWWDrsntsU_vFJ-5" value="&lt;font style=&quot;font-size: 48px;&quot;&gt;&lt;b style=&quot;&quot;&gt;Domain&lt;/b&gt;&lt;/font&gt;" style="text;html=1;align=center;verticalAlign=middle;whiteSpace=wrap;rounded=0;" parent="1" vertex="1">
          <mxGeometry x="-74" y="718" width="192" height="30" as="geometry" />
        </mxCell>
        <mxCell id="h_kPDkXWWDrsntsU_vFJ-6" value="&lt;font style=&quot;font-size: 48px;&quot;&gt;&lt;b style=&quot;&quot;&gt;Persistance&lt;/b&gt;&lt;/font&gt;" style="text;html=1;align=center;verticalAlign=middle;whiteSpace=wrap;rounded=0;" parent="1" vertex="1">
          <mxGeometry x="255" y="1450" width="287" height="30" as="geometry" />
        </mxCell>
        <mxCell id="h_kPDkXWWDrsntsU_vFJ-26" value="&lt;p style=&quot;margin:0px;margin-top:4px;text-align:center;&quot;&gt;&lt;b&gt;SachManagementUI&lt;/b&gt;&lt;br&gt;&lt;/p&gt;&lt;hr size=&quot;1&quot; style=&quot;border-style:solid;&quot;&gt;&lt;p style=&quot;margin:0px;margin-left:4px;&quot;&gt;- sachService: SachService&lt;br&gt;&lt;/p&gt;&lt;p style=&quot;margin:0px;margin-left:4px;&quot;&gt;- tableModel: DefaultTableModel&lt;/p&gt;&lt;p style=&quot;margin:0px;margin-left:4px;&quot;&gt;- sachTable: JTable&lt;/p&gt;&lt;p style=&quot;margin:0px;margin-left:4px;&quot;&gt;&lt;br&gt;&lt;/p&gt;&lt;p style=&quot;margin:0px;margin-left:4px;&quot;&gt;&lt;span style=&quot;background-color: initial;&quot;&gt;- maSachField: JTextField&lt;/span&gt;&lt;br&gt;&lt;/p&gt;&lt;p style=&quot;margin:0px;margin-left:4px;&quot;&gt;- ngayNhapFiled:&amp;nbsp;&lt;span style=&quot;background-color: initial;&quot;&gt;JTextField&lt;/span&gt;&lt;/p&gt;&lt;div&gt;&amp;nbsp;- donGiaFiled:&amp;nbsp;&lt;span style=&quot;background-color: initial;&quot;&gt;JTextField&lt;/span&gt;&lt;br&gt;&lt;/div&gt;&lt;div&gt;&amp;nbsp;&lt;span style=&quot;background-color: initial;&quot;&gt;- soLuong&lt;/span&gt;Filed&lt;span style=&quot;background-color: initial;&quot;&gt;:&amp;nbsp;&lt;/span&gt;&lt;span style=&quot;background-color: initial;&quot;&gt;JTextField&lt;/span&gt;&lt;/div&gt;&lt;div&gt;&amp;nbsp;&lt;span style=&quot;background-color: initial;&quot;&gt;- nhaXuatBan&lt;/span&gt;Filed&lt;span style=&quot;background-color: initial;&quot;&gt;:&amp;nbsp;&lt;/span&gt;&lt;span style=&quot;background-color: initial;&quot;&gt;JTextField&lt;/span&gt;&lt;/div&gt;&lt;div&gt;&lt;span style=&quot;background-color: initial;&quot;&gt;&amp;nbsp;&lt;/span&gt;&lt;span style=&quot;background-color: initial;&quot;&gt;- tinhTrang&lt;/span&gt;Filed&lt;span style=&quot;background-color: initial;&quot;&gt;:&amp;nbsp;&lt;/span&gt;&lt;span style=&quot;background-color: initial;&quot;&gt;JTextField&lt;/span&gt;&lt;/div&gt;&lt;div&gt;&lt;span style=&quot;background-color: initial;&quot;&gt;&amp;nbsp;&lt;/span&gt;&lt;span style=&quot;background-color: initial;&quot;&gt;- thue&lt;/span&gt;Filed&lt;span style=&quot;background-color: initial;&quot;&gt;:&amp;nbsp;&lt;/span&gt;&lt;span style=&quot;background-color: initial;&quot;&gt;JTextField&lt;/span&gt;&lt;/div&gt;&lt;div&gt;&lt;span style=&quot;background-color: initial;&quot;&gt;&amp;nbsp;&lt;/span&gt;&lt;span style=&quot;background-color: initial;&quot;&gt;- search&lt;/span&gt;&lt;span style=&quot;background-color: initial;&quot;&gt;Filed:&amp;nbsp;&lt;/span&gt;&lt;span style=&quot;background-color: initial;&quot;&gt;JTextField&lt;/span&gt;&lt;/div&gt;&lt;div&gt;&lt;span style=&quot;background-color: initial;&quot;&gt;&amp;nbsp;&lt;/span&gt;&lt;/div&gt;&lt;div&gt;&lt;span style=&quot;background-color: initial;&quot;&gt;&amp;nbsp;- addButton: JButton&lt;/span&gt;&lt;br&gt;&lt;/div&gt;&lt;div&gt;&lt;span style=&quot;background-color: initial;&quot;&gt;&amp;nbsp;- remove&lt;/span&gt;&lt;span style=&quot;background-color: initial;&quot;&gt;Button: JButton&lt;/span&gt;&lt;/div&gt;&lt;div&gt;&amp;nbsp;- edit&lt;span style=&quot;background-color: initial;&quot;&gt;Button: JButton&amp;nbsp;&lt;/span&gt;&lt;/div&gt;&lt;div&gt;&lt;span style=&quot;background-color: initial;&quot;&gt;&amp;nbsp;- find&lt;/span&gt;&lt;span style=&quot;background-color: initial;&quot;&gt;Button: JButton&lt;/span&gt;&lt;/div&gt;&lt;div&gt;&lt;span style=&quot;background-color: initial;&quot;&gt;&amp;nbsp;- search&lt;/span&gt;&lt;span style=&quot;background-color: initial;&quot;&gt;Button: JButton&lt;/span&gt;&lt;/div&gt;&lt;div&gt;&amp;nbsp;&lt;/div&gt;&lt;div&gt;&amp;nbsp;- typeComboBox: JComBoBox&amp;lt;String&amp;gt;&lt;/div&gt;&lt;div&gt;&lt;span style=&quot;background-color: initial;&quot;&gt;&amp;nbsp;- sachControllerRemote: SachController&lt;/span&gt;&lt;/div&gt;&lt;hr size=&quot;1&quot; style=&quot;border-style:solid;&quot;&gt;&lt;p style=&quot;margin:0px;margin-left:4px;&quot;&gt;SachManagementUI(sachService SachService, commandProcessor CommandProcessor)&lt;/p&gt;&lt;p style=&quot;margin:0px;margin-left:4px;&quot;&gt;- toggleFields(): void&lt;/p&gt;&lt;p style=&quot;margin:0px;margin-left:4px;&quot;&gt;- setupLayout(): void&lt;/p&gt;&lt;p style=&quot;margin:0px;margin-left:4px;&quot;&gt;- createInputPanel(): JPanel&lt;/p&gt;&lt;p style=&quot;margin:0px;margin-left:4px;&quot;&gt;- createButtonPanel(): JPanel&lt;/p&gt;&lt;p style=&quot;margin:0px;margin-left:4px;&quot;&gt;- createSearchPanel(): JPanel&lt;/p&gt;&lt;p style=&quot;margin:0px;margin-left:4px;&quot;&gt;+ getSach(): Sach&lt;/p&gt;&lt;p style=&quot;margin:0px;margin-left:4px;&quot;&gt;+ removeSach(): String&lt;/p&gt;&lt;p style=&quot;margin:0px;margin-left:4px;&quot;&gt;+ editSach(): Sach&lt;/p&gt;&lt;p style=&quot;margin:0px;margin-left:4px;&quot;&gt;+ findSach(): void&lt;/p&gt;&lt;p style=&quot;margin:0px;margin-left:4px;&quot;&gt;+ searchSach(): String&lt;/p&gt;&lt;p style=&quot;margin:0px;margin-left:4px;&quot;&gt;+ refreshSachTable(): void&lt;/p&gt;&lt;p style=&quot;margin:0px;margin-left:4px;&quot;&gt;- updateSachTable(sachs List&amp;lt;Sach&amp;gt;): void&lt;/p&gt;&lt;p style=&quot;margin:0px;margin-left:4px;&quot;&gt;+ setSearch&lt;span style=&quot;background-color: initial;&quot;&gt;(sach List&amp;lt;Sach&amp;gt;): void&lt;/span&gt;&lt;/p&gt;&lt;p style=&quot;margin:0px;margin-left:4px;&quot;&gt;&lt;span style=&quot;background-color: initial;&quot;&gt;+ getSachService(): SachService&lt;/span&gt;&lt;/p&gt;&lt;p style=&quot;margin:0px;margin-left:4px;&quot;&gt;+ getSearchField(): JTextField&lt;/p&gt;&lt;p style=&quot;margin:0px;margin-left:4px;&quot;&gt;+ showMessage(message String): void&lt;/p&gt;&lt;p style=&quot;margin:0px;margin-left:4px;&quot;&gt;+ update(): void&lt;/p&gt;&lt;p style=&quot;margin:0px;margin-left:4px;&quot;&gt;&lt;br&gt;&lt;/p&gt;&lt;p style=&quot;margin:0px;margin-left:4px;&quot;&gt;&lt;br&gt;&lt;/p&gt;&lt;p style=&quot;margin:0px;margin-left:4px;&quot;&gt;&lt;br&gt;&lt;/p&gt;&lt;p style=&quot;margin:0px;margin-left:4px;&quot;&gt;&lt;br&gt;&lt;/p&gt;" style="verticalAlign=top;align=left;overflow=fill;html=1;whiteSpace=wrap;" parent="1" vertex="1">
          <mxGeometry x="895" y="-590" width="695" height="620" as="geometry" />
        </mxCell>
        <mxCell id="h_kPDkXWWDrsntsU_vFJ-25" value="&lt;p style=&quot;margin:0px;margin-top:4px;text-align:center;&quot;&gt;&lt;b&gt;SachController&lt;/b&gt;&lt;/p&gt;&lt;hr size=&quot;1&quot; style=&quot;border-style:solid;&quot;&gt;&lt;p style=&quot;margin:0px;margin-left:4px;&quot;&gt;- instance: SachController&lt;/p&gt;&lt;p style=&quot;margin:0px;margin-left:4px;&quot;&gt;- sachManagementUIRemote: S&lt;span style=&quot;background-color: initial;&quot;&gt;achManagementUI&lt;/span&gt;&lt;/p&gt;&lt;div&gt;&amp;nbsp;&lt;span style=&quot;background-color: initial;&quot;&gt;- commandProcessorRemote: CommandProcessor&lt;/span&gt;&lt;/div&gt;&lt;hr size=&quot;1&quot; style=&quot;border-style:solid;&quot;&gt;&lt;p style=&quot;margin:0px;margin-left:4px;&quot;&gt;- SachController(&lt;span style=&quot;background-color: initial;&quot;&gt;sachManagementUIRemote S&lt;/span&gt;&lt;span style=&quot;background-color: initial;&quot;&gt;achManagementUI,&amp;nbsp;&lt;/span&gt;&lt;span style=&quot;background-color: initial;&quot;&gt;commandProcessorRemote CommandProcessor&lt;/span&gt;&lt;span style=&quot;background-color: initial;&quot;&gt;&amp;nbsp;&lt;/span&gt;&lt;span style=&quot;background-color: initial;&quot;&gt;)&lt;/span&gt;&lt;/p&gt;&lt;p style=&quot;margin:0px;margin-left:4px;&quot;&gt;+ getInstance(&lt;span style=&quot;background-color: initial;&quot;&gt;sachManagementUIRemote: S&lt;/span&gt;&lt;span style=&quot;background-color: initial;&quot;&gt;achManagementUI&lt;/span&gt;&lt;span style=&quot;background-color: initial;&quot;&gt;): SachController (static synchronized)&lt;/span&gt;&lt;/p&gt;&lt;p style=&quot;margin:0px;margin-left:4px;&quot;&gt;+ actionPerformed(e: ActionEvent): void&lt;/p&gt;&lt;p style=&quot;margin:0px;margin-left:4px;&quot;&gt;&lt;br&gt;&lt;/p&gt;" style="verticalAlign=top;align=left;overflow=fill;html=1;whiteSpace=wrap;" parent="1" vertex="1">
          <mxGeometry x="180" y="-490" width="560" height="160" as="geometry" />
        </mxCell>
        <mxCell id="h_kPDkXWWDrsntsU_vFJ-28" value="&lt;p style=&quot;margin:0px;margin-top:4px;text-align:center;&quot;&gt;&lt;b&gt;Abstract Class&lt;/b&gt;&lt;/p&gt;&lt;p style=&quot;margin:0px;margin-top:4px;text-align:center;&quot;&gt;&lt;b&gt;Command&lt;/b&gt;&lt;br&gt;&lt;/p&gt;&lt;hr size=&quot;1&quot; style=&quot;border-style:solid;&quot;&gt;&lt;p style=&quot;margin:0px;margin-left:4px;&quot;&gt;- sachServiceRemote: SachService(static)&lt;br&gt;&lt;/p&gt;&lt;hr size=&quot;1&quot; style=&quot;border-style:solid;&quot;&gt;&lt;p style=&quot;margin:0px;margin-left:4px;&quot;&gt;Command(sachServiceRemote: SachService)&lt;/p&gt;&lt;p style=&quot;margin:0px;margin-left:4px;&quot;&gt;+ execute(): void&lt;/p&gt;" style="verticalAlign=top;align=left;overflow=fill;html=1;whiteSpace=wrap;" parent="1" vertex="1">
          <mxGeometry x="210" y="-50" width="365" height="130" as="geometry" />
        </mxCell>
        <mxCell id="h_kPDkXWWDrsntsU_vFJ-29" value="&lt;p style=&quot;margin:0px;margin-top:4px;text-align:center;&quot;&gt;&lt;b&gt;AddSachCommand&lt;/b&gt;&lt;/p&gt;&lt;hr size=&quot;1&quot; style=&quot;border-style:solid;&quot;&gt;&lt;p style=&quot;margin:0px;margin-left:4px;&quot;&gt;- sach: Sach&lt;/p&gt;&lt;hr size=&quot;1&quot; style=&quot;border-style:solid;&quot;&gt;&lt;p style=&quot;margin:0px;margin-left:4px;&quot;&gt;+ AddSachCommand(sachServiceRemote SachService, sach Sach)&lt;/p&gt;&lt;p style=&quot;margin:0px;margin-left:4px;&quot;&gt;+ execute(): void&lt;/p&gt;" style="verticalAlign=top;align=left;overflow=fill;html=1;whiteSpace=wrap;" parent="1" vertex="1">
          <mxGeometry x="-462.5" y="-350" width="440" height="90" as="geometry" />
        </mxCell>
        <mxCell id="h_kPDkXWWDrsntsU_vFJ-30" value="&lt;p style=&quot;margin:0px;margin-top:4px;text-align:center;&quot;&gt;&lt;b&gt;EditSachCommand&lt;/b&gt;&lt;/p&gt;&lt;hr size=&quot;1&quot; style=&quot;border-style:solid;&quot;&gt;&lt;p style=&quot;margin:0px;margin-left:4px;&quot;&gt;&lt;span style=&quot;background-color: initial;&quot;&gt;- sach: Sach&lt;/span&gt;&lt;/p&gt;&lt;hr size=&quot;1&quot; style=&quot;border-style:solid;&quot;&gt;&lt;p style=&quot;margin: 0px 0px 0px 4px;&quot;&gt;+ EditSachCommand(sachServiceRemote SachService, sach Sach)&lt;/p&gt;&lt;p style=&quot;margin:0px;margin-left:4px;&quot;&gt;+ execute(): void&lt;/p&gt;" style="verticalAlign=top;align=left;overflow=fill;html=1;whiteSpace=wrap;" parent="1" vertex="1">
          <mxGeometry x="-480" y="-210" width="440" height="90" as="geometry" />
        </mxCell>
        <mxCell id="h_kPDkXWWDrsntsU_vFJ-31" value="&lt;p style=&quot;margin:0px;margin-top:4px;text-align:center;&quot;&gt;&lt;b&gt;DeleteCommand&lt;/b&gt;&lt;/p&gt;&lt;hr size=&quot;1&quot; style=&quot;border-style:solid;&quot;&gt;&lt;p style=&quot;margin:0px;margin-left:4px;&quot;&gt;- maSach: String&lt;/p&gt;&lt;hr size=&quot;1&quot; style=&quot;border-style:solid;&quot;&gt;&lt;p style=&quot;margin: 0px 0px 0px 4px;&quot;&gt;+ DeleteCommand(sachServiceRemote SachService, sach Sach)&lt;/p&gt;&lt;p style=&quot;margin:0px;margin-left:4px;&quot;&gt;&lt;span style=&quot;background-color: initial;&quot;&gt;+ execute(): void&lt;/span&gt;&lt;br&gt;&lt;/p&gt;" style="verticalAlign=top;align=left;overflow=fill;html=1;whiteSpace=wrap;" parent="1" vertex="1">
          <mxGeometry x="-480" y="-90" width="440" height="90" as="geometry" />
        </mxCell>
        <mxCell id="h_kPDkXWWDrsntsU_vFJ-32" value="&lt;p style=&quot;margin:0px;margin-top:4px;text-align:center;&quot;&gt;&lt;b&gt;SearchSachCommand&lt;/b&gt;&lt;/p&gt;&lt;hr size=&quot;1&quot; style=&quot;border-style:solid;&quot;&gt;&lt;p style=&quot;margin:0px;margin-left:4px;&quot;&gt;- keyword: String&lt;/p&gt;&lt;hr size=&quot;1&quot; style=&quot;border-style:solid;&quot;&gt;&lt;p style=&quot;margin: 0px 0px 0px 4px;&quot;&gt;+ SearchSachCommand(sachService SachService, keyword String)&lt;/p&gt;&lt;p style=&quot;margin:0px;margin-left:4px;&quot;&gt;+ execute(): void&lt;/p&gt;" style="verticalAlign=top;align=left;overflow=fill;html=1;whiteSpace=wrap;" parent="1" vertex="1">
          <mxGeometry x="-480" y="200" width="440" height="90" as="geometry" />
        </mxCell>
        <mxCell id="h_kPDkXWWDrsntsU_vFJ-35" value="" style="endArrow=open;endFill=1;endSize=12;html=1;rounded=0;" parent="1" source="h_kPDkXWWDrsntsU_vFJ-26" target="h_kPDkXWWDrsntsU_vFJ-25" edge="1">
          <mxGeometry width="160" relative="1" as="geometry">
            <mxPoint x="590" y="100" as="sourcePoint" />
            <mxPoint x="490" y="-97.5" as="targetPoint" />
          </mxGeometry>
        </mxCell>
        <mxCell id="h_kPDkXWWDrsntsU_vFJ-39" value="Extends" style="endArrow=block;endSize=16;endFill=0;html=1;rounded=0;entryX=0;entryY=0;entryDx=0;entryDy=0;exitX=0.907;exitY=0.995;exitDx=0;exitDy=0;exitPerimeter=0;" parent="1" source="h_kPDkXWWDrsntsU_vFJ-29" target="h_kPDkXWWDrsntsU_vFJ-28" edge="1">
          <mxGeometry width="160" relative="1" as="geometry">
            <mxPoint x="610" y="350" as="sourcePoint" />
            <mxPoint x="770" y="350" as="targetPoint" />
          </mxGeometry>
        </mxCell>
        <mxCell id="h_kPDkXWWDrsntsU_vFJ-40" value="Extends" style="endArrow=block;endSize=16;endFill=0;html=1;rounded=0;exitX=1;exitY=0.75;exitDx=0;exitDy=0;" parent="1" source="h_kPDkXWWDrsntsU_vFJ-30" target="h_kPDkXWWDrsntsU_vFJ-28" edge="1">
          <mxGeometry width="160" relative="1" as="geometry">
            <mxPoint x="574" y="460" as="sourcePoint" />
            <mxPoint x="809" y="220" as="targetPoint" />
          </mxGeometry>
        </mxCell>
        <mxCell id="h_kPDkXWWDrsntsU_vFJ-41" value="Extends" style="endArrow=block;endSize=16;endFill=0;html=1;rounded=0;" parent="1" source="h_kPDkXWWDrsntsU_vFJ-31" target="h_kPDkXWWDrsntsU_vFJ-28" edge="1">
          <mxGeometry width="160" relative="1" as="geometry">
            <mxPoint x="740" y="460" as="sourcePoint" />
            <mxPoint x="844" y="220" as="targetPoint" />
          </mxGeometry>
        </mxCell>
        <mxCell id="h_kPDkXWWDrsntsU_vFJ-42" value="Extends" style="endArrow=block;endSize=16;endFill=0;html=1;rounded=0;entryX=0;entryY=1;entryDx=0;entryDy=0;" parent="1" source="h_kPDkXWWDrsntsU_vFJ-32" target="h_kPDkXWWDrsntsU_vFJ-28" edge="1">
          <mxGeometry width="160" relative="1" as="geometry">
            <mxPoint x="914" y="460" as="sourcePoint" />
            <mxPoint x="236" y="40" as="targetPoint" />
          </mxGeometry>
        </mxCell>
        <mxCell id="h_kPDkXWWDrsntsU_vFJ-47" value="Extends" style="endArrow=block;endSize=16;endFill=0;html=1;rounded=0;" parent="1" source="h_kPDkXWWDrsntsU_vFJ-48" target="h_kPDkXWWDrsntsU_vFJ-28" edge="1">
          <mxGeometry width="160" relative="1" as="geometry">
            <mxPoint x="1348" y="220" as="sourcePoint" />
            <mxPoint x="1045" y="80" as="targetPoint" />
          </mxGeometry>
        </mxCell>
        <mxCell id="h_kPDkXWWDrsntsU_vFJ-48" value="&lt;p style=&quot;margin:0px;margin-top:4px;text-align:center;&quot;&gt;&lt;b&gt;DisplayAllSachsCommand&lt;/b&gt;&lt;/p&gt;&lt;hr size=&quot;1&quot; style=&quot;border-style:solid;&quot;&gt;&lt;p style=&quot;margin:0px;margin-left:4px;&quot;&gt;- result: List&amp;lt;Sach&amp;gt;&lt;/p&gt;&lt;hr size=&quot;1&quot; style=&quot;border-style:solid;&quot;&gt;&lt;p style=&quot;margin:0px;margin-left:4px;&quot;&gt;+ DisplayAllSachsCommand(sachServiceRemote SachService,&amp;nbsp;&lt;span style=&quot;background-color: initial;&quot;&gt;result List&amp;lt;Sach&amp;gt;&lt;/span&gt;&lt;/p&gt;&lt;p style=&quot;margin:0px;margin-left:4px;&quot;&gt;&lt;span style=&quot;background-color: initial;&quot;&gt;+ execute(): void&lt;/span&gt;&lt;/p&gt;" style="verticalAlign=top;align=left;overflow=fill;html=1;whiteSpace=wrap;" parent="1" vertex="1">
          <mxGeometry x="20" y="200" width="440" height="100" as="geometry" />
        </mxCell>
        <mxCell id="4x_Q-kM1GF2V5SxtyhLO-2" value="" style="endArrow=diamondThin;endFill=1;endSize=24;html=1;rounded=0;entryX=-0.001;entryY=0.082;entryDx=0;entryDy=0;entryPerimeter=0;exitX=1;exitY=0.75;exitDx=0;exitDy=0;" parent="1" source="4x_Q-kM1GF2V5SxtyhLO-4" target="h_kPDkXWWDrsntsU_vFJ-26" edge="1">
          <mxGeometry width="160" relative="1" as="geometry">
            <mxPoint x="1040" y="-440" as="sourcePoint" />
            <mxPoint x="1200" y="-440" as="targetPoint" />
          </mxGeometry>
        </mxCell>
        <mxCell id="4x_Q-kM1GF2V5SxtyhLO-4" value="&lt;p style=&quot;margin:0px;margin-top:4px;text-align:center;&quot;&gt;&lt;b&gt;JPanel&lt;/b&gt;&lt;/p&gt;&lt;hr size=&quot;1&quot; style=&quot;border-style:solid;&quot;&gt;&lt;p style=&quot;margin:0px;margin-left:4px;&quot;&gt;+ field: Type&lt;/p&gt;&lt;hr size=&quot;1&quot; style=&quot;border-style:solid;&quot;&gt;&lt;p style=&quot;margin:0px;margin-left:4px;&quot;&gt;+ method(): Type&lt;/p&gt;" style="verticalAlign=top;align=left;overflow=fill;html=1;whiteSpace=wrap;" parent="1" vertex="1">
          <mxGeometry x="650" y="-670" width="140" height="90" as="geometry" />
        </mxCell>
        <mxCell id="4x_Q-kM1GF2V5SxtyhLO-5" value="&lt;p style=&quot;margin:0px;margin-top:4px;text-align:center;&quot;&gt;&lt;b&gt;JTextField&lt;/b&gt;&lt;/p&gt;&lt;hr size=&quot;1&quot; style=&quot;border-style:solid;&quot;&gt;&lt;p style=&quot;margin:0px;margin-left:4px;&quot;&gt;+ field: Type&lt;/p&gt;&lt;hr size=&quot;1&quot; style=&quot;border-style:solid;&quot;&gt;&lt;p style=&quot;margin:0px;margin-left:4px;&quot;&gt;+ method(): Type&lt;/p&gt;" style="verticalAlign=top;align=left;overflow=fill;html=1;whiteSpace=wrap;" parent="1" vertex="1">
          <mxGeometry x="760" y="-790" width="140" height="90" as="geometry" />
        </mxCell>
        <mxCell id="4x_Q-kM1GF2V5SxtyhLO-6" value="" style="endArrow=diamondThin;endFill=1;endSize=24;html=1;rounded=0;entryX=0.133;entryY=0;entryDx=0;entryDy=0;entryPerimeter=0;exitX=0.25;exitY=1;exitDx=0;exitDy=0;" parent="1" source="4x_Q-kM1GF2V5SxtyhLO-5" target="h_kPDkXWWDrsntsU_vFJ-26" edge="1">
          <mxGeometry width="160" relative="1" as="geometry">
            <mxPoint x="970" y="-660" as="sourcePoint" />
            <mxPoint x="1026" y="-590" as="targetPoint" />
          </mxGeometry>
        </mxCell>
        <mxCell id="4x_Q-kM1GF2V5SxtyhLO-7" value="&lt;p style=&quot;margin:0px;margin-top:4px;text-align:center;&quot;&gt;&lt;b&gt;JFrame&lt;/b&gt;&lt;/p&gt;&lt;hr size=&quot;1&quot; style=&quot;border-style:solid;&quot;&gt;&lt;p style=&quot;margin:0px;margin-left:4px;&quot;&gt;+ field: Type&lt;/p&gt;&lt;hr size=&quot;1&quot; style=&quot;border-style:solid;&quot;&gt;&lt;p style=&quot;margin:0px;margin-left:4px;&quot;&gt;+ method(): Type&lt;/p&gt;" style="verticalAlign=top;align=left;overflow=fill;html=1;whiteSpace=wrap;" parent="1" vertex="1">
          <mxGeometry x="910" y="-900" width="140" height="90" as="geometry" />
        </mxCell>
        <mxCell id="4x_Q-kM1GF2V5SxtyhLO-8" value="Extends" style="endArrow=block;endSize=16;endFill=0;html=1;rounded=0;exitX=0.224;exitY=0.001;exitDx=0;exitDy=0;exitPerimeter=0;" parent="1" source="h_kPDkXWWDrsntsU_vFJ-26" target="4x_Q-kM1GF2V5SxtyhLO-7" edge="1">
          <mxGeometry width="160" relative="1" as="geometry">
            <mxPoint x="1010" y="-635.56" as="sourcePoint" />
            <mxPoint x="1170" y="-635.56" as="targetPoint" />
          </mxGeometry>
        </mxCell>
        <mxCell id="4x_Q-kM1GF2V5SxtyhLO-9" value="&lt;p style=&quot;margin:0px;margin-top:4px;text-align:center;&quot;&gt;&lt;b&gt;JScrollPane&lt;/b&gt;&lt;/p&gt;&lt;hr size=&quot;1&quot; style=&quot;border-style:solid;&quot;&gt;&lt;p style=&quot;margin:0px;margin-left:4px;&quot;&gt;+ field: Type&lt;/p&gt;&lt;hr size=&quot;1&quot; style=&quot;border-style:solid;&quot;&gt;&lt;p style=&quot;margin:0px;margin-left:4px;&quot;&gt;+ method(): Type&lt;/p&gt;" style="verticalAlign=top;align=left;overflow=fill;html=1;whiteSpace=wrap;" parent="1" vertex="1">
          <mxGeometry x="1070" y="-910" width="140" height="90" as="geometry" />
        </mxCell>
        <mxCell id="4x_Q-kM1GF2V5SxtyhLO-10" value="" style="endArrow=diamondThin;endFill=1;endSize=24;html=1;rounded=0;entryX=0.309;entryY=0.001;entryDx=0;entryDy=0;entryPerimeter=0;exitX=0.25;exitY=1;exitDx=0;exitDy=0;" parent="1" source="4x_Q-kM1GF2V5SxtyhLO-9" target="h_kPDkXWWDrsntsU_vFJ-26" edge="1">
          <mxGeometry width="160" relative="1" as="geometry">
            <mxPoint x="1130" y="-760" as="sourcePoint" />
            <mxPoint x="1255" y="-590" as="targetPoint" />
          </mxGeometry>
        </mxCell>
        <mxCell id="4x_Q-kM1GF2V5SxtyhLO-11" value="&lt;p style=&quot;margin:0px;margin-top:4px;text-align:center;&quot;&gt;&lt;b&gt;JButton&lt;/b&gt;&lt;/p&gt;&lt;hr size=&quot;1&quot; style=&quot;border-style:solid;&quot;&gt;&lt;p style=&quot;margin:0px;margin-left:4px;&quot;&gt;+ field: Type&lt;/p&gt;&lt;hr size=&quot;1&quot; style=&quot;border-style:solid;&quot;&gt;&lt;p style=&quot;margin:0px;margin-left:4px;&quot;&gt;+ method(): Type&lt;/p&gt;" style="verticalAlign=top;align=left;overflow=fill;html=1;whiteSpace=wrap;" parent="1" vertex="1">
          <mxGeometry x="1230" y="-920" width="140" height="90" as="geometry" />
        </mxCell>
        <mxCell id="4x_Q-kM1GF2V5SxtyhLO-12" value="" style="endArrow=diamondThin;endFill=1;endSize=24;html=1;rounded=0;entryX=0.425;entryY=0.001;entryDx=0;entryDy=0;entryPerimeter=0;exitX=0.093;exitY=1.002;exitDx=0;exitDy=0;exitPerimeter=0;" parent="1" source="4x_Q-kM1GF2V5SxtyhLO-11" target="h_kPDkXWWDrsntsU_vFJ-26" edge="1">
          <mxGeometry width="160" relative="1" as="geometry">
            <mxPoint x="1295" y="-820" as="sourcePoint" />
            <mxPoint x="1230" y="-530" as="targetPoint" />
          </mxGeometry>
        </mxCell>
        <mxCell id="4x_Q-kM1GF2V5SxtyhLO-13" value="&lt;p style=&quot;margin:0px;margin-top:4px;text-align:center;&quot;&gt;&lt;b&gt;JLabel&lt;/b&gt;&lt;/p&gt;&lt;hr size=&quot;1&quot; style=&quot;border-style:solid;&quot;&gt;&lt;p style=&quot;margin:0px;margin-left:4px;&quot;&gt;+ field: Type&lt;/p&gt;&lt;hr size=&quot;1&quot; style=&quot;border-style:solid;&quot;&gt;&lt;p style=&quot;margin:0px;margin-left:4px;&quot;&gt;+ method(): Type&lt;/p&gt;" style="verticalAlign=top;align=left;overflow=fill;html=1;whiteSpace=wrap;" parent="1" vertex="1">
          <mxGeometry x="1390" y="-920" width="140" height="90" as="geometry" />
        </mxCell>
        <mxCell id="4x_Q-kM1GF2V5SxtyhLO-14" value="" style="endArrow=diamondThin;endFill=1;endSize=24;html=1;rounded=0;entryX=0.614;entryY=0.006;entryDx=0;entryDy=0;entryPerimeter=0;exitX=0.25;exitY=1;exitDx=0;exitDy=0;" parent="1" source="4x_Q-kM1GF2V5SxtyhLO-13" target="h_kPDkXWWDrsntsU_vFJ-26" edge="1">
          <mxGeometry width="160" relative="1" as="geometry">
            <mxPoint x="1453" y="-810" as="sourcePoint" />
            <mxPoint x="1370" y="-520" as="targetPoint" />
          </mxGeometry>
        </mxCell>
        <mxCell id="4x_Q-kM1GF2V5SxtyhLO-15" value="&lt;p style=&quot;margin:0px;margin-top:4px;text-align:center;&quot;&gt;&lt;b&gt;JComboBox&lt;/b&gt;&lt;/p&gt;&lt;hr size=&quot;1&quot; style=&quot;border-style:solid;&quot;&gt;&lt;p style=&quot;margin:0px;margin-left:4px;&quot;&gt;+ field: Type&lt;/p&gt;&lt;hr size=&quot;1&quot; style=&quot;border-style:solid;&quot;&gt;&lt;p style=&quot;margin:0px;margin-left:4px;&quot;&gt;+ method(): Type&lt;/p&gt;" style="verticalAlign=top;align=left;overflow=fill;html=1;whiteSpace=wrap;" parent="1" vertex="1">
          <mxGeometry x="1550" y="-920" width="140" height="90" as="geometry" />
        </mxCell>
        <mxCell id="4x_Q-kM1GF2V5SxtyhLO-16" value="" style="endArrow=diamondThin;endFill=1;endSize=24;html=1;rounded=0;entryX=0.75;entryY=0;entryDx=0;entryDy=0;exitX=0.25;exitY=1;exitDx=0;exitDy=0;" parent="1" source="4x_Q-kM1GF2V5SxtyhLO-15" target="h_kPDkXWWDrsntsU_vFJ-26" edge="1">
          <mxGeometry width="160" relative="1" as="geometry">
            <mxPoint x="1590" y="-810" as="sourcePoint" />
            <mxPoint x="1457" y="-517" as="targetPoint" />
          </mxGeometry>
        </mxCell>
        <mxCell id="4x_Q-kM1GF2V5SxtyhLO-17" value="&lt;p style=&quot;margin:0px;margin-top:4px;text-align:center;&quot;&gt;&lt;b&gt;DefaultTableModel&lt;/b&gt;&lt;/p&gt;&lt;hr size=&quot;1&quot; style=&quot;border-style:solid;&quot;&gt;&lt;p style=&quot;margin:0px;margin-left:4px;&quot;&gt;+ field: Type&lt;/p&gt;&lt;hr size=&quot;1&quot; style=&quot;border-style:solid;&quot;&gt;&lt;p style=&quot;margin:0px;margin-left:4px;&quot;&gt;+ method(): Type&lt;/p&gt;" style="verticalAlign=top;align=left;overflow=fill;html=1;whiteSpace=wrap;" parent="1" vertex="1">
          <mxGeometry x="1710" y="-900" width="140" height="90" as="geometry" />
        </mxCell>
        <mxCell id="4x_Q-kM1GF2V5SxtyhLO-18" value="&lt;p style=&quot;margin:0px;margin-top:4px;text-align:center;&quot;&gt;&lt;b&gt;JComboBox&lt;/b&gt;&lt;/p&gt;&lt;hr size=&quot;1&quot; style=&quot;border-style:solid;&quot;&gt;&lt;p style=&quot;margin:0px;margin-left:4px;&quot;&gt;+ field: Type&lt;/p&gt;&lt;hr size=&quot;1&quot; style=&quot;border-style:solid;&quot;&gt;&lt;p style=&quot;margin:0px;margin-left:4px;&quot;&gt;+ method(): Type&lt;/p&gt;" style="verticalAlign=top;align=left;overflow=fill;html=1;whiteSpace=wrap;" parent="1" vertex="1">
          <mxGeometry x="1800" y="-780" width="140" height="90" as="geometry" />
        </mxCell>
        <mxCell id="4x_Q-kM1GF2V5SxtyhLO-19" value="&lt;p style=&quot;margin:0px;margin-top:4px;text-align:center;&quot;&gt;&lt;b&gt;JComboBox&lt;/b&gt;&lt;/p&gt;&lt;hr size=&quot;1&quot; style=&quot;border-style:solid;&quot;&gt;&lt;p style=&quot;margin:0px;margin-left:4px;&quot;&gt;+ field: Type&lt;/p&gt;&lt;hr size=&quot;1&quot; style=&quot;border-style:solid;&quot;&gt;&lt;p style=&quot;margin:0px;margin-left:4px;&quot;&gt;+ method(): Type&lt;/p&gt;" style="verticalAlign=top;align=left;overflow=fill;html=1;whiteSpace=wrap;" parent="1" vertex="1">
          <mxGeometry x="1800" y="-660" width="140" height="90" as="geometry" />
        </mxCell>
        <mxCell id="4x_Q-kM1GF2V5SxtyhLO-20" value="" style="endArrow=diamondThin;endFill=1;endSize=24;html=1;rounded=0;entryX=0.88;entryY=0.001;entryDx=0;entryDy=0;exitX=0.08;exitY=0.999;exitDx=0;exitDy=0;exitPerimeter=0;entryPerimeter=0;" parent="1" source="4x_Q-kM1GF2V5SxtyhLO-17" target="h_kPDkXWWDrsntsU_vFJ-26" edge="1">
          <mxGeometry width="160" relative="1" as="geometry">
            <mxPoint x="1699" y="-810" as="sourcePoint" />
            <mxPoint x="1530" y="-510" as="targetPoint" />
          </mxGeometry>
        </mxCell>
        <mxCell id="4x_Q-kM1GF2V5SxtyhLO-21" value="" style="endArrow=diamondThin;endFill=1;endSize=24;html=1;rounded=0;entryX=0.931;entryY=-0.001;entryDx=0;entryDy=0;exitX=0;exitY=0.5;exitDx=0;exitDy=0;entryPerimeter=0;" parent="1" source="4x_Q-kM1GF2V5SxtyhLO-18" target="h_kPDkXWWDrsntsU_vFJ-26" edge="1">
          <mxGeometry width="160" relative="1" as="geometry">
            <mxPoint x="1769" y="-710" as="sourcePoint" />
            <mxPoint x="1600" y="-410" as="targetPoint" />
          </mxGeometry>
        </mxCell>
        <mxCell id="4x_Q-kM1GF2V5SxtyhLO-22" value="" style="endArrow=diamondThin;endFill=1;endSize=24;html=1;rounded=0;entryX=0.999;entryY=0.038;entryDx=0;entryDy=0;exitX=0;exitY=0.75;exitDx=0;exitDy=0;entryPerimeter=0;" parent="1" source="4x_Q-kM1GF2V5SxtyhLO-19" target="h_kPDkXWWDrsntsU_vFJ-26" edge="1">
          <mxGeometry width="160" relative="1" as="geometry">
            <mxPoint x="1797" y="-586" as="sourcePoint" />
            <mxPoint x="1710" y="-230" as="targetPoint" />
          </mxGeometry>
        </mxCell>
        <mxCell id="4x_Q-kM1GF2V5SxtyhLO-25" value="&lt;p style=&quot;margin:0px;margin-top:4px;text-align:center;&quot;&gt;&lt;b&gt;&amp;lt;&amp;lt;interface&amp;gt;&amp;gt;&lt;/b&gt;&lt;/p&gt;&lt;p style=&quot;margin:0px;margin-top:4px;text-align:center;&quot;&gt;&lt;b&gt;ActionListener&lt;/b&gt;&lt;/p&gt;&lt;hr size=&quot;1&quot; style=&quot;border-style:solid;&quot;&gt;&lt;p style=&quot;margin:0px;margin-left:4px;&quot;&gt;&lt;br&gt;&lt;/p&gt;&lt;hr size=&quot;1&quot; style=&quot;border-style:solid;&quot;&gt;&lt;p style=&quot;margin:0px;margin-left:4px;&quot;&gt;+ actionPerformed(ActionEvent e ): void&lt;/p&gt;" style="verticalAlign=top;align=left;overflow=fill;html=1;whiteSpace=wrap;" parent="1" vertex="1">
          <mxGeometry x="210" y="-720" width="230" height="100" as="geometry" />
        </mxCell>
        <mxCell id="4x_Q-kM1GF2V5SxtyhLO-28" value="" style="endArrow=block;dashed=1;endFill=0;endSize=12;html=1;rounded=0;" parent="1" source="h_kPDkXWWDrsntsU_vFJ-25" target="4x_Q-kM1GF2V5SxtyhLO-25" edge="1">
          <mxGeometry width="160" relative="1" as="geometry">
            <mxPoint x="178" y="-260" as="sourcePoint" />
            <mxPoint x="140" y="-510" as="targetPoint" />
          </mxGeometry>
        </mxCell>
        <mxCell id="4x_Q-kM1GF2V5SxtyhLO-30" value="&lt;p style=&quot;margin:0px;margin-top:4px;text-align:center;&quot;&gt;&lt;b&gt;RemoveSachCommand&lt;/b&gt;&lt;/p&gt;&lt;hr size=&quot;1&quot; style=&quot;border-style:solid;&quot;&gt;&lt;p style=&quot;margin:0px;margin-left:4px;&quot;&gt;- sachId: int&lt;/p&gt;&lt;hr size=&quot;1&quot; style=&quot;border-style:solid;&quot;&gt;&lt;p style=&quot;margin:0px;margin-left:4px;&quot;&gt;+ RemoveSachCommand(sachServiceRemote SachService, sachId int)&lt;/p&gt;&lt;p style=&quot;margin:0px;margin-left:4px;&quot;&gt;+ execute(): void&lt;/p&gt;" style="verticalAlign=top;align=left;overflow=fill;html=1;whiteSpace=wrap;" parent="1" vertex="1">
          <mxGeometry x="-480" y="50" width="440" height="90" as="geometry" />
        </mxCell>
        <mxCell id="4x_Q-kM1GF2V5SxtyhLO-31" value="Extends" style="endArrow=block;endSize=16;endFill=0;html=1;rounded=0;exitX=0.5;exitY=0;exitDx=0;exitDy=0;" parent="1" source="4x_Q-kM1GF2V5SxtyhLO-30" target="h_kPDkXWWDrsntsU_vFJ-28" edge="1">
          <mxGeometry width="160" relative="1" as="geometry">
            <mxPoint x="219" y="420" as="sourcePoint" />
            <mxPoint x="350" y="40" as="targetPoint" />
          </mxGeometry>
        </mxCell>
        <mxCell id="BMiZZtvpt7XFR4OgQFsg-2" value="&lt;p style=&quot;margin:0px;margin-top:4px;text-align:center;&quot;&gt;&lt;span style=&quot;text-wrap: nowrap;&quot;&gt;&lt;b&gt;&amp;lt;&amp;lt;interface&amp;gt;&amp;gt;&lt;/b&gt;&lt;/span&gt;&lt;/p&gt;&lt;p style=&quot;margin:0px;margin-top:4px;text-align:center;&quot;&gt;&lt;b style=&quot;text-wrap: nowrap; background-color: initial;&quot;&gt;SachPersistanceService&lt;/b&gt;&lt;br&gt;&lt;/p&gt;&lt;p style=&quot;margin:0px;margin-top:4px;text-align:center;&quot;&gt;&lt;b style=&quot;text-wrap: nowrap; background-color: initial;&quot;&gt;&lt;br&gt;&lt;/b&gt;&lt;/p&gt;&lt;hr size=&quot;1&quot; style=&quot;border-style:solid;&quot;&gt;&lt;p style=&quot;margin:0px;margin-left:4px;&quot;&gt;&lt;br&gt;&lt;/p&gt;&lt;hr size=&quot;1&quot; style=&quot;border-style:solid;&quot;&gt;&lt;p style=&quot;margin: 0px 0px 0px 4px;&quot;&gt;&lt;span style=&quot;background-color: initial;&quot;&gt;+ saveSach(sach Sach): void&lt;/span&gt;&lt;br&gt;&lt;/p&gt;&lt;p style=&quot;margin: 0px 0px 0px 4px;&quot;&gt;+ deleteSach(maSach string): void&lt;/p&gt;&lt;p style=&quot;margin: 0px 0px 0px 4px;&quot;&gt;+ updateSach(sach Sach): void&lt;/p&gt;&lt;p style=&quot;margin: 0px 0px 0px 4px;&quot;&gt;+ searchSachs(keyword String):&amp;nbsp;&lt;span style=&quot;background-color: initial;&quot;&gt;List&amp;lt;Sach&amp;gt;&lt;/span&gt;&lt;/p&gt;&lt;p style=&quot;margin: 0px 0px 0px 4px;&quot;&gt;+ getSachById(maSach String): Sach&lt;/p&gt;&lt;p style=&quot;margin: 0px 0px 0px 4px;&quot;&gt;+ getAllSachs(): List&amp;lt;Sach&amp;gt;&lt;/p&gt;" style="verticalAlign=top;align=left;overflow=fill;html=1;whiteSpace=wrap;fillColor=#99FF99;" parent="1" vertex="1">
          <mxGeometry x="1430" y="1510" width="250" height="190" as="geometry" />
        </mxCell>
        <mxCell id="BMiZZtvpt7XFR4OgQFsg-3" value="&lt;p style=&quot;margin:0px;margin-top:4px;text-align:center;&quot;&gt;&lt;b style=&quot;text-wrap: nowrap; background-color: initial;&quot;&gt;SachPersistanceServiceImpl&lt;/b&gt;&lt;br&gt;&lt;/p&gt;&lt;hr size=&quot;1&quot; style=&quot;border-style:solid;&quot;&gt;&lt;p style=&quot;margin:0px;margin-left:4px;&quot;&gt;&lt;br&gt;&lt;/p&gt;&lt;hr size=&quot;1&quot; style=&quot;border-style:solid;&quot;&gt;&lt;p style=&quot;margin: 0px 0px 0px 4px;&quot;&gt;&lt;span style=&quot;background-color: initial;&quot;&gt;+ saveSach(sach Sach): void&lt;/span&gt;&lt;br&gt;&lt;/p&gt;&lt;p style=&quot;margin: 0px 0px 0px 4px;&quot;&gt;+ deleteSach(maSach string): void&lt;/p&gt;&lt;p style=&quot;margin: 0px 0px 0px 4px;&quot;&gt;+ updateSach(sach Sach): void&lt;/p&gt;&lt;p style=&quot;margin: 0px 0px 0px 4px;&quot;&gt;+ searchSachs(keyword String):&amp;nbsp;&lt;span style=&quot;background-color: initial;&quot;&gt;List&amp;lt;Sach&amp;gt;&lt;/span&gt;&lt;/p&gt;&lt;p style=&quot;margin: 0px 0px 0px 4px;&quot;&gt;+ getSachById(maSach String): Sach&lt;/p&gt;&lt;p style=&quot;margin: 0px 0px 0px 4px;&quot;&gt;+ getAllSachs(): List&amp;lt;Sach&amp;gt;&lt;/p&gt;&lt;p style=&quot;margin: 0px 0px 0px 4px;&quot;&gt;- closeConnection(connection Connection): void&lt;/p&gt;" style="verticalAlign=top;align=left;overflow=fill;html=1;whiteSpace=wrap;" parent="1" vertex="1">
          <mxGeometry x="1300" y="1760" width="290" height="170" as="geometry" />
        </mxCell>
        <mxCell id="BMiZZtvpt7XFR4OgQFsg-4" value="" style="endArrow=block;dashed=1;endFill=0;endSize=12;html=1;rounded=0;" parent="1" source="BMiZZtvpt7XFR4OgQFsg-3" target="BMiZZtvpt7XFR4OgQFsg-2" edge="1">
          <mxGeometry width="160" relative="1" as="geometry">
            <mxPoint x="918" y="1680" as="sourcePoint" />
            <mxPoint x="980" y="1650" as="targetPoint" />
          </mxGeometry>
        </mxCell>
        <mxCell id="BMiZZtvpt7XFR4OgQFsg-5" value="&lt;p style=&quot;margin:0px;margin-top:4px;text-align:center;&quot;&gt;&lt;span style=&quot;text-wrap: nowrap;&quot;&gt;&lt;b&gt;Connect&lt;/b&gt;&lt;/span&gt;&lt;/p&gt;&lt;hr size=&quot;1&quot; style=&quot;border-style:solid;&quot;&gt;&lt;p style=&quot;margin:0px;margin-left:4px;&quot;&gt;+ field: Type&lt;/p&gt;&lt;hr size=&quot;1&quot; style=&quot;border-style:solid;&quot;&gt;&lt;p style=&quot;margin: 0px 0px 0px 4px;&quot;&gt;&lt;span style=&quot;background-color: initial;&quot;&gt;&lt;span style=&quot;text-wrap: nowrap;&quot;&gt;+ method(): Type&lt;br&gt;&lt;/span&gt;&lt;/span&gt;&lt;/p&gt;" style="verticalAlign=top;align=left;overflow=fill;html=1;whiteSpace=wrap;" parent="1" vertex="1">
          <mxGeometry x="1240" y="1990" width="150" height="90" as="geometry" />
        </mxCell>
        <mxCell id="BMiZZtvpt7XFR4OgQFsg-6" value="" style="endArrow=diamondThin;endFill=1;endSize=24;html=1;rounded=0;exitX=0.5;exitY=0;exitDx=0;exitDy=0;" parent="1" source="BMiZZtvpt7XFR4OgQFsg-5" target="BMiZZtvpt7XFR4OgQFsg-3" edge="1">
          <mxGeometry width="160" relative="1" as="geometry">
            <mxPoint x="330" y="1720" as="sourcePoint" />
            <mxPoint x="276.00000000000045" y="1945.7200000000003" as="targetPoint" />
          </mxGeometry>
        </mxCell>
        <mxCell id="5ZmiadH_o4QxfyNPnb-h-14" value="&lt;p style=&quot;margin:0px;margin-top:4px;text-align:center;&quot;&gt;&lt;b&gt;SachGiaoKhoa&lt;/b&gt;&lt;/p&gt;&lt;hr size=&quot;1&quot; style=&quot;border-style:solid;&quot;&gt;&lt;p style=&quot;margin:0px;margin-left:4px;&quot;&gt;- tinhTrang: String&lt;/p&gt;&lt;hr size=&quot;1&quot; style=&quot;border-style:solid;&quot;&gt;&lt;p style=&quot;margin:0px;margin-left:4px;&quot;&gt;SachGiaoKhoa(maSach, ngayNhap, donGia, soLuong, nhaXuatBan, tinhTrang)&lt;/p&gt;&lt;p style=&quot;margin:0px;margin-left:4px;&quot;&gt;&lt;br&gt;&lt;/p&gt;&lt;p style=&quot;margin:0px;margin-left:4px;&quot;&gt;+ thanhTien: double&lt;/p&gt;&lt;p style=&quot;margin:0px;margin-left:4px;&quot;&gt;+ getter/setter&lt;/p&gt;&lt;p style=&quot;margin:0px;margin-left:4px;&quot;&gt;&lt;br&gt;&lt;/p&gt;" style="verticalAlign=top;align=left;overflow=fill;html=1;whiteSpace=wrap;" parent="1" vertex="1">
          <mxGeometry x="170" y="860" width="190" height="160" as="geometry" />
        </mxCell>
        <mxCell id="5ZmiadH_o4QxfyNPnb-h-15" value="&lt;p style=&quot;margin:0px;margin-top:4px;text-align:center;&quot;&gt;&lt;b&gt;SachThamKhao&lt;/b&gt;&lt;/p&gt;&lt;hr size=&quot;1&quot; style=&quot;border-style:solid;&quot;&gt;&lt;p style=&quot;margin:0px;margin-left:4px;&quot;&gt;- thue: double&lt;br&gt;&lt;/p&gt;&lt;hr size=&quot;1&quot; style=&quot;border-style:solid;&quot;&gt;&lt;p style=&quot;margin:0px;margin-left:4px;&quot;&gt;SachGiaoKhoa(maSach,&amp;nbsp;&lt;/p&gt;&lt;p style=&quot;margin:0px;margin-left:4px;&quot;&gt;&lt;span style=&quot;background-color: initial;&quot;&gt;ngayNhap, donGia,&amp;nbsp;&lt;/span&gt;&lt;span style=&quot;background-color: initial;&quot;&gt;soLuong,&amp;nbsp; nhaXuatBan, thue)&lt;/span&gt;&lt;/p&gt;&lt;p style=&quot;margin:0px;margin-left:4px;&quot;&gt;&lt;br&gt;&lt;/p&gt;&lt;p style=&quot;margin:0px;margin-left:4px;&quot;&gt;+ thanhTien: double&lt;/p&gt;&lt;p style=&quot;margin:0px;margin-left:4px;&quot;&gt;+ getter/setter&lt;/p&gt;" style="verticalAlign=top;align=left;overflow=fill;html=1;whiteSpace=wrap;" parent="1" vertex="1">
          <mxGeometry x="320" y="1080" width="180" height="160" as="geometry" />
        </mxCell>
        <mxCell id="5ZmiadH_o4QxfyNPnb-h-16" value="&lt;p style=&quot;margin:0px;margin-top:4px;text-align:center;&quot;&gt;&lt;b&gt;Sach&lt;/b&gt;&lt;/p&gt;&lt;hr size=&quot;1&quot; style=&quot;border-style:solid;&quot;&gt;&lt;p style=&quot;margin: 0px 0px 0px 4px;&quot;&gt;- id: int&lt;/p&gt;&lt;p style=&quot;margin: 0px 0px 0px 4px;&quot;&gt;- maSach: String&lt;/p&gt;&lt;p style=&quot;margin: 0px 0px 0px 4px;&quot;&gt;- ngayNhap: String&lt;/p&gt;&lt;p style=&quot;margin: 0px 0px 0px 4px;&quot;&gt;- donGia: double&lt;/p&gt;&lt;p style=&quot;margin: 0px 0px 0px 4px;&quot;&gt;- soLuong: int&lt;/p&gt;&lt;p style=&quot;margin: 0px 0px 0px 4px;&quot;&gt;- nhaXuatBan: String&lt;/p&gt;&lt;hr size=&quot;1&quot; style=&quot;border-style:solid;&quot;&gt;&lt;p style=&quot;margin:0px;margin-left:4px;&quot;&gt;Sach()&lt;/p&gt;&lt;p style=&quot;margin:0px;margin-left:4px;&quot;&gt;+ thanhTien: double&lt;/p&gt;&lt;p style=&quot;margin:0px;margin-left:4px;&quot;&gt;+ getter/setter&lt;/p&gt;" style="verticalAlign=top;align=left;overflow=fill;html=1;whiteSpace=wrap;" parent="1" vertex="1">
          <mxGeometry x="500" y="810" width="160" height="180" as="geometry" />
        </mxCell>
        <mxCell id="5ZmiadH_o4QxfyNPnb-h-17" value="Extends" style="endArrow=block;endSize=16;endFill=0;html=1;rounded=0;" parent="1" source="5ZmiadH_o4QxfyNPnb-h-14" target="5ZmiadH_o4QxfyNPnb-h-16" edge="1">
          <mxGeometry width="160" relative="1" as="geometry">
            <mxPoint x="380" y="970" as="sourcePoint" />
            <mxPoint x="540" y="970" as="targetPoint" />
          </mxGeometry>
        </mxCell>
        <mxCell id="5ZmiadH_o4QxfyNPnb-h-18" value="Extends" style="endArrow=block;endSize=16;endFill=0;html=1;rounded=0;" parent="1" source="5ZmiadH_o4QxfyNPnb-h-15" edge="1">
          <mxGeometry width="160" relative="1" as="geometry">
            <mxPoint x="517" y="1050" as="sourcePoint" />
            <mxPoint x="521" y="990" as="targetPoint" />
          </mxGeometry>
        </mxCell>
        <mxCell id="5ZmiadH_o4QxfyNPnb-h-19" value="&lt;p style=&quot;margin:0px;margin-top:4px;text-align:center;&quot;&gt;&lt;b&gt;&amp;lt;&amp;lt;Implement&amp;gt;&amp;gt;&lt;/b&gt;&lt;/p&gt;&lt;p style=&quot;margin:0px;margin-top:4px;text-align:center;&quot;&gt;&lt;b&gt;SachServiceImpl&lt;/b&gt;&lt;/p&gt;&lt;hr size=&quot;1&quot; style=&quot;border-style:solid;&quot;&gt;&lt;p style=&quot;margin:0px;margin-left:4px;&quot;&gt;- sachs: List&amp;lt;Sach&amp;gt;&lt;/p&gt;&lt;p style=&quot;margin:0px;margin-left:4px;&quot;&gt;- sachPersistanceService SachPersistanceService&lt;/p&gt;&lt;hr size=&quot;1&quot; style=&quot;border-style:solid;&quot;&gt;&lt;p style=&quot;margin:0px;margin-left:4px;&quot;&gt;+ SachServiceImpl(s&lt;span style=&quot;background-color: initial;&quot;&gt;achPersistanceService S&lt;/span&gt;&lt;span style=&quot;background-color: initial;&quot;&gt;achPersistanceService)&lt;/span&gt;&lt;/p&gt;&lt;p style=&quot;margin:0px;margin-left:4px;&quot;&gt;&lt;span style=&quot;background-color: initial;&quot;&gt;+ addSach(sach Sach): void&lt;/span&gt;&lt;/p&gt;&lt;p style=&quot;margin:0px;margin-left:4px;&quot;&gt;&lt;span style=&quot;background-color: initial;&quot;&gt;+ removeSach(maSach String): void&lt;/span&gt;&lt;/p&gt;&lt;p style=&quot;margin:0px;margin-left:4px;&quot;&gt;&lt;span style=&quot;background-color: initial;&quot;&gt;+ editSach(sach Sach): void&lt;/span&gt;&lt;/p&gt;&lt;p style=&quot;margin:0px;margin-left:4px;&quot;&gt;&lt;span style=&quot;background-color: initial;&quot;&gt;+ findSach(maSach String): Sach&lt;/span&gt;&lt;/p&gt;&lt;p style=&quot;margin:0px;margin-left:4px;&quot;&gt;&lt;span style=&quot;background-color: initial;&quot;&gt;+ getAllSachs: List&amp;lt;Sach&amp;gt;&lt;/span&gt;&lt;/p&gt;&lt;p style=&quot;margin:0px;margin-left:4px;&quot;&gt;&lt;span style=&quot;background-color: initial;&quot;&gt;+ tinhTongThanhTienGiaoKhoa: double&lt;/span&gt;&lt;/p&gt;&lt;p style=&quot;margin:0px;margin-left:4px;&quot;&gt;&lt;span style=&quot;background-color: initial;&quot;&gt;+ tinhTongThanhTienThamKhao: double&lt;/span&gt;&lt;/p&gt;&lt;p style=&quot;margin:0px;margin-left:4px;&quot;&gt;&lt;span style=&quot;background-color: initial;&quot;&gt;+ tinhTrungBinhDonGiaThamKhao: double&lt;/span&gt;&lt;/p&gt;&lt;p style=&quot;margin:0px;margin-left:4px;&quot;&gt;&lt;span style=&quot;background-color: initial;&quot;&gt;+ getSachGiaoKhoaByNhaXuatBan(nhaXuatBan String): List&amp;lt;Sach&amp;gt;&lt;/span&gt;&lt;/p&gt;&lt;p style=&quot;margin:0px;margin-left:4px;&quot;&gt;&lt;span style=&quot;background-color: initial;&quot;&gt;+ searchSachsByName(name String): List&amp;lt;Sach&amp;gt;&lt;/span&gt;&lt;/p&gt;&lt;p style=&quot;margin:0px;margin-left:4px;&quot;&gt;&lt;span style=&quot;background-color: initial;&quot;&gt;+ searchSachs(keyword String): List&amp;lt;Sach&amp;gt;&lt;/span&gt;&lt;/p&gt;&lt;p style=&quot;margin:0px;margin-left:4px;&quot;&gt;&lt;span style=&quot;background-color: initial;&quot;&gt;+ getSachs(): List&amp;lt;Sach&amp;gt;&lt;/span&gt;&lt;/p&gt;&lt;p style=&quot;margin:0px;margin-left:4px;&quot;&gt;&lt;span style=&quot;background-color: initial;&quot;&gt;+ thongBao(): void&lt;/span&gt;&lt;/p&gt;" style="verticalAlign=top;align=left;overflow=fill;html=1;whiteSpace=wrap;" parent="1" vertex="1">
          <mxGeometry x="975" y="1080" width="390" height="300" as="geometry" />
        </mxCell>
        <mxCell id="5ZmiadH_o4QxfyNPnb-h-20" value="&lt;p style=&quot;margin:0px;margin-top:4px;text-align:center;&quot;&gt;&lt;b&gt;&amp;lt;&amp;lt;interface&amp;gt;&amp;gt;&lt;/b&gt;&lt;b style=&quot;background-color: initial;&quot;&gt;&lt;br&gt;&lt;/b&gt;&lt;/p&gt;&lt;p style=&quot;margin:0px;margin-top:4px;text-align:center;&quot;&gt;&lt;b style=&quot;background-color: initial;&quot;&gt;SachService&lt;/b&gt;&lt;br&gt;&lt;/p&gt;&lt;hr size=&quot;1&quot; style=&quot;border-style:solid;&quot;&gt;&lt;p style=&quot;margin:0px;margin-left:4px;&quot;&gt;&lt;span style=&quot;background-color: initial; text-wrap: nowrap; text-align: center;&quot;&gt;- persistenceServiceRemote&lt;/span&gt;&lt;span style=&quot;text-align: center; text-wrap: nowrap;&quot;&gt;: SachPersistenceService&lt;/span&gt;&lt;br&gt;&lt;/p&gt;&lt;hr size=&quot;1&quot; style=&quot;border-style:solid;&quot;&gt;&lt;p style=&quot;margin: 0px 0px 0px 4px;&quot;&gt;&lt;span style=&quot;background-color: initial;&quot;&gt;+ addSach(sach Sach): void&lt;/span&gt;&lt;/p&gt;&lt;p style=&quot;margin: 0px 0px 0px 4px;&quot;&gt;&lt;span style=&quot;background-color: initial;&quot;&gt;+ removeSach(maSach String): void&lt;/span&gt;&lt;/p&gt;&lt;p style=&quot;margin: 0px 0px 0px 4px;&quot;&gt;&lt;span style=&quot;background-color: initial;&quot;&gt;+ editSach(sach Sach): void&lt;/span&gt;&lt;/p&gt;&lt;p style=&quot;margin: 0px 0px 0px 4px;&quot;&gt;&lt;span style=&quot;background-color: initial;&quot;&gt;+ findSach(maSach String): Sach&lt;/span&gt;&lt;/p&gt;&lt;p style=&quot;margin: 0px 0px 0px 4px;&quot;&gt;&lt;span style=&quot;background-color: initial;&quot;&gt;+ getAllSachs: List&amp;lt;Sach&amp;gt;&lt;/span&gt;&lt;/p&gt;&lt;p style=&quot;margin: 0px 0px 0px 4px;&quot;&gt;&lt;span style=&quot;background-color: initial;&quot;&gt;+ getSachs(): List&amp;lt;Sach&amp;gt;&lt;/span&gt;&lt;/p&gt;&lt;p style=&quot;margin: 0px 0px 0px 4px;&quot;&gt;&lt;span style=&quot;background-color: initial;&quot;&gt;+ tinhTongThanhTienGiaoKhoa: double&lt;/span&gt;&lt;/p&gt;&lt;p style=&quot;margin: 0px 0px 0px 4px;&quot;&gt;&lt;span style=&quot;background-color: initial;&quot;&gt;+ tinhTongThanhTienThamKhao: double&lt;/span&gt;&lt;/p&gt;&lt;p style=&quot;margin: 0px 0px 0px 4px;&quot;&gt;&lt;span style=&quot;background-color: initial;&quot;&gt;+ tinhTrungBinhDonGiaThamKhao: double&lt;/span&gt;&lt;/p&gt;&lt;p style=&quot;margin: 0px 0px 0px 4px;&quot;&gt;&lt;span style=&quot;background-color: initial;&quot;&gt;+ getSachGiaoKhoaByNhaXuatBan(nhaXuatBan String): List&amp;lt;Sach&amp;gt;&lt;/span&gt;&lt;/p&gt;&lt;p style=&quot;margin: 0px 0px 0px 4px;&quot;&gt;&lt;span style=&quot;background-color: initial;&quot;&gt;+ searchSachsByName(name String): List&amp;lt;Sach&amp;gt;&lt;/span&gt;&lt;/p&gt;&lt;p style=&quot;margin: 0px 0px 0px 4px;&quot;&gt;&lt;span style=&quot;background-color: initial;&quot;&gt;+ searchSachs(keyword String): List&amp;lt;Sach&amp;gt;&lt;/span&gt;&lt;/p&gt;" style="verticalAlign=top;align=left;overflow=fill;html=1;whiteSpace=wrap;" parent="1" vertex="1">
          <mxGeometry x="982.5" y="740" width="375" height="250" as="geometry" />
        </mxCell>
        <mxCell id="5ZmiadH_o4QxfyNPnb-h-21" value="Use" style="endArrow=open;endSize=12;dashed=1;html=1;rounded=0;" parent="1" source="5ZmiadH_o4QxfyNPnb-h-20" target="5ZmiadH_o4QxfyNPnb-h-16" edge="1">
          <mxGeometry width="160" relative="1" as="geometry">
            <mxPoint x="820" y="1050" as="sourcePoint" />
            <mxPoint x="980" y="1050" as="targetPoint" />
          </mxGeometry>
        </mxCell>
        <mxCell id="5ZmiadH_o4QxfyNPnb-h-22" value="" style="endArrow=block;dashed=1;endFill=0;endSize=12;html=1;rounded=0;" parent="1" source="5ZmiadH_o4QxfyNPnb-h-20" target="5ZmiadH_o4QxfyNPnb-h-19" edge="1">
          <mxGeometry width="160" relative="1" as="geometry">
            <mxPoint x="840" y="970" as="sourcePoint" />
            <mxPoint x="1000" y="970" as="targetPoint" />
          </mxGeometry>
        </mxCell>
        <mxCell id="5ZmiadH_o4QxfyNPnb-h-23" value="&lt;p style=&quot;margin:0px;margin-top:4px;text-align:center;&quot;&gt;&lt;b&gt;&amp;lt;&amp;lt;interface&amp;gt;&amp;gt;&lt;/b&gt;&lt;/p&gt;&lt;p style=&quot;margin:0px;margin-top:4px;text-align:center;&quot;&gt;&lt;b&gt;Subscriber&lt;/b&gt;&lt;/p&gt;&lt;hr size=&quot;1&quot; style=&quot;border-style:solid;&quot;&gt;&lt;p style=&quot;margin:0px;margin-left:4px;&quot;&gt;&lt;br&gt;&lt;/p&gt;&lt;hr size=&quot;1&quot; style=&quot;border-style:solid;&quot;&gt;&lt;p style=&quot;margin:0px;margin-left:4px;&quot;&gt;+ &lt;i&gt;update(): void&lt;/i&gt;&lt;/p&gt;" style="verticalAlign=top;align=left;overflow=fill;html=1;whiteSpace=wrap;" parent="1" vertex="1">
          <mxGeometry x="1710" y="850" width="230" height="140" as="geometry" />
        </mxCell>
        <mxCell id="5ZmiadH_o4QxfyNPnb-h-24" value="" style="endArrow=diamondThin;endFill=0;endSize=24;html=1;rounded=0;exitX=0.5;exitY=1;exitDx=0;exitDy=0;entryX=0.893;entryY=0.638;entryDx=0;entryDy=0;entryPerimeter=0;" parent="1" edge="1">
          <mxGeometry width="160" relative="1" as="geometry">
            <mxPoint x="1830" y="990" as="sourcePoint" />
            <mxPoint x="1861.1800000000003" y="1170.2200000000003" as="targetPoint" />
          </mxGeometry>
        </mxCell>
        <mxCell id="5ZmiadH_o4QxfyNPnb-h-25" value="&lt;p style=&quot;margin:0px;margin-top:4px;text-align:center;&quot;&gt;&lt;b&gt;Publisher&lt;/b&gt;&lt;/p&gt;&lt;hr size=&quot;1&quot; style=&quot;border-style:solid;&quot;&gt;&lt;p style=&quot;margin:0px;margin-left:4px;&quot;&gt;- subscribers: List&amp;lt;Subscriber&amp;gt;&lt;/p&gt;&lt;hr size=&quot;1&quot; style=&quot;border-style:solid;&quot;&gt;&lt;p style=&quot;margin:0px;margin-left:4px;&quot;&gt;+ subscribe(subscriber Subscriber): void&lt;/p&gt;&lt;p style=&quot;margin:0px;margin-left:4px;&quot;&gt;+ unsubscribe(subscriber Subscriber): void&lt;/p&gt;&lt;p style=&quot;margin:0px;margin-left:4px;&quot;&gt;+ notifySubsribers(): void&lt;/p&gt;" style="verticalAlign=top;align=left;overflow=fill;html=1;whiteSpace=wrap;" parent="1" vertex="1">
          <mxGeometry x="1750" y="1170" width="240" height="130" as="geometry" />
        </mxCell>
        <mxCell id="5ZmiadH_o4QxfyNPnb-h-26" value="Extends" style="endArrow=block;endSize=16;endFill=0;html=1;rounded=0;" parent="1" edge="1" source="5ZmiadH_o4QxfyNPnb-h-19">
          <mxGeometry width="160" relative="1" as="geometry">
            <mxPoint x="1400" y="1195" as="sourcePoint" />
            <mxPoint x="1750" y="1240" as="targetPoint" />
          </mxGeometry>
        </mxCell>
        <mxCell id="5ZmiadH_o4QxfyNPnb-h-27" value="" style="endArrow=open;endFill=1;endSize=12;html=1;rounded=0;" parent="1" source="5ZmiadH_o4QxfyNPnb-h-19" target="BMiZZtvpt7XFR4OgQFsg-2" edge="1">
          <mxGeometry width="160" relative="1" as="geometry">
            <mxPoint x="1020" y="1270" as="sourcePoint" />
            <mxPoint x="810" y="1330" as="targetPoint" />
            <Array as="points" />
          </mxGeometry>
        </mxCell>
        <mxCell id="5ZmiadH_o4QxfyNPnb-h-29" value="" style="endArrow=open;endFill=1;endSize=12;html=1;rounded=0;" parent="1" source="h_kPDkXWWDrsntsU_vFJ-26" target="5ZmiadH_o4QxfyNPnb-h-20" edge="1">
          <mxGeometry width="160" relative="1" as="geometry">
            <mxPoint x="1222" y="310" as="sourcePoint" />
            <mxPoint x="1090" y="520" as="targetPoint" />
            <Array as="points" />
          </mxGeometry>
        </mxCell>
        <mxCell id="5ZmiadH_o4QxfyNPnb-h-30" value="" style="endArrow=block;dashed=1;endFill=0;endSize=12;html=1;rounded=0;entryX=0.5;entryY=0;entryDx=0;entryDy=0;" parent="1" source="h_kPDkXWWDrsntsU_vFJ-26" target="5ZmiadH_o4QxfyNPnb-h-23" edge="1">
          <mxGeometry width="160" relative="1" as="geometry">
            <mxPoint x="1370" y="460" as="sourcePoint" />
            <mxPoint x="1378" y="170" as="targetPoint" />
          </mxGeometry>
        </mxCell>
        <mxCell id="5ZmiadH_o4QxfyNPnb-h-31" value="" style="endArrow=open;endFill=1;endSize=12;html=1;rounded=0;exitX=0.5;exitY=1;exitDx=0;exitDy=0;" parent="1" source="h_kPDkXWWDrsntsU_vFJ-28" target="5ZmiadH_o4QxfyNPnb-h-20" edge="1">
          <mxGeometry width="160" relative="1" as="geometry">
            <mxPoint x="450" as="sourcePoint" />
            <mxPoint x="205" y="850" as="targetPoint" />
            <Array as="points" />
          </mxGeometry>
        </mxCell>
        <mxCell id="5ZmiadH_o4QxfyNPnb-h-32" value="" style="endArrow=open;endFill=1;endSize=12;html=1;rounded=0;entryX=0.5;entryY=0;entryDx=0;entryDy=0;exitX=0;exitY=0.5;exitDx=0;exitDy=0;" parent="1" source="h_kPDkXWWDrsntsU_vFJ-30" target="5ZmiadH_o4QxfyNPnb-h-16" edge="1">
          <mxGeometry width="160" relative="1" as="geometry">
            <mxPoint x="-30" y="10" as="sourcePoint" />
            <mxPoint x="460" y="770" as="targetPoint" />
            <Array as="points">
              <mxPoint x="-550" y="-165" />
              <mxPoint x="-550" y="450" />
            </Array>
          </mxGeometry>
        </mxCell>
        <mxCell id="5ZmiadH_o4QxfyNPnb-h-33" value="" style="endArrow=open;endFill=1;endSize=12;html=1;rounded=0;entryX=0;entryY=0;entryDx=0;entryDy=0;exitX=0;exitY=0.5;exitDx=0;exitDy=0;" parent="1" source="h_kPDkXWWDrsntsU_vFJ-29" target="5ZmiadH_o4QxfyNPnb-h-16" edge="1">
          <mxGeometry width="160" relative="1" as="geometry">
            <mxPoint x="200" y="100" as="sourcePoint" />
            <mxPoint x="690" y="860" as="targetPoint" />
            <Array as="points">
              <mxPoint x="-620" y="-305" />
              <mxPoint x="-620" y="550" />
            </Array>
          </mxGeometry>
        </mxCell>
        <mxCell id="eF_iFS728mSMjJK0-sXP-1" value="&lt;p style=&quot;margin:0px;margin-top:4px;text-align:center;&quot;&gt;&lt;b style=&quot;background-color: initial;&quot;&gt;CommandProcessor&lt;/b&gt;&lt;br&gt;&lt;/p&gt;&lt;hr size=&quot;1&quot; style=&quot;border-style:solid;&quot;&gt;&lt;p style=&quot;margin:0px;margin-left:4px;&quot;&gt;- commandProcessorRemote: CommandProcessor(static)&lt;/p&gt;&lt;hr size=&quot;1&quot; style=&quot;border-style:solid;&quot;&gt;&lt;p style=&quot;margin:0px;margin-left:4px;&quot;&gt;- CommandProcessor()&lt;/p&gt;&lt;p style=&quot;margin:0px;margin-left:4px;&quot;&gt;+ static makeC&lt;span style=&quot;background-color: initial;&quot;&gt;ommandProcessor: C&lt;/span&gt;&lt;span style=&quot;background-color: initial;&quot;&gt;ommandProcessor&lt;/span&gt;&lt;/p&gt;&lt;p style=&quot;margin:0px;margin-left:4px;&quot;&gt;&lt;span style=&quot;background-color: initial;&quot;&gt;+ execute(command Command): void&lt;/span&gt;&lt;br&gt;&lt;/p&gt;" style="verticalAlign=top;align=left;overflow=fill;html=1;whiteSpace=wrap;" vertex="1" parent="1">
          <mxGeometry x="255" y="-250" width="365" height="120" as="geometry" />
        </mxCell>
        <mxCell id="eF_iFS728mSMjJK0-sXP-2" value="" style="endArrow=open;endFill=1;endSize=12;html=1;rounded=0;" edge="1" parent="1" source="h_kPDkXWWDrsntsU_vFJ-25" target="eF_iFS728mSMjJK0-sXP-1">
          <mxGeometry width="160" relative="1" as="geometry">
            <mxPoint x="805" y="-280" as="sourcePoint" />
            <mxPoint x="550" y="-330" as="targetPoint" />
          </mxGeometry>
        </mxCell>
        <mxCell id="eF_iFS728mSMjJK0-sXP-4" value="Use" style="endArrow=open;endSize=12;dashed=1;html=1;rounded=0;" edge="1" parent="1" source="eF_iFS728mSMjJK0-sXP-1" target="h_kPDkXWWDrsntsU_vFJ-28">
          <mxGeometry width="160" relative="1" as="geometry">
            <mxPoint x="752.5" y="-160" as="sourcePoint" />
            <mxPoint x="572.5" y="-151" as="targetPoint" />
          </mxGeometry>
        </mxCell>
      </root>
    </mxGraphModel>
  </diagram>
</mxfile>
